{
    "asset" : {
        "generator" : "Khronos glTF Blender I/O v1.8.19",
        "version" : "2.0"
    },
    "scene" : 0,
    "scenes" : [
        {
            "name" : "Scene",
            "nodes" : [
                0
            ]
        }
    ],
    "nodes" : [
        {
            "mesh" : 0,
            "name" : "\u529e\u516c\u697c37"
        }
    ],
    "materials" : [
        {
            "doubleSided" : true,
            "name" : "Mat3d66-1003769-58-4036",
            "pbrMetallicRoughness" : {
                "baseColorTexture" : {
                    "index" : 0
                },
                "metallicFactor" : 0,
                "roughnessFactor" : 0.8779526948928833
            }
        },
        {
            "doubleSided" : true,
            "name" : "Mat3d66-1003769-59-6549",
            "pbrMetallicRoughness" : {
                "baseColorFactor" : [
                    0.4196079969406128,
                    0.5294119715690613,
                    0.6078429818153381,
                    1
                ],
                "metallicFactor" : 0,
                "roughnessFactor" : 0.5
            }
        },
        {
            "alphaMode" : "BLEND",
            "doubleSided" : true,
            "name" : "Mat3d66-1003769-60-913",
            "pbrMetallicRoughness" : {
                "baseColorFactor" : [
                    0.23921599984169006,
                    0.282353013753891,
                    0.313726007938385,
                    0.874015748500824
                ],
                "metallicFactor" : 0,
                "roughnessFactor" : 0.5708661675453186
            }
        },
        {
            "doubleSided" : true,
            "name" : "Mat3d66-1003769-61-4111",
            "pbrMetallicRoughness" : {
                "baseColorFactor" : [
                    0.5882350206375122,
                    0.5882350206375122,
                    0.5882350206375122,
                    1
                ],
                "metallicFactor" : 0,
                "roughnessFactor" : 0.5
            }
        },
        {
            "doubleSided" : true,
            "name" : "Mat3d66-1003769-57-9979",
            "pbrMetallicRoughness" : {
                "baseColorTexture" : {
                    "index" : 1
                },
                "metallicFactor" : 0,
                "roughnessFactor" : 0.5
            }
        },
        {
            "doubleSided" : true,
            "name" : "Mat3d66-1003769-62-1394",
            "pbrMetallicRoughness" : {
                "baseColorFactor" : [
                    0.33725500106811523,
                    0.5882350206375122,
                    0.47843098640441895,
                    1
                ],
                "metallicFactor" : 0,
                "roughnessFactor" : 0.5
            }
        },
        {
            "doubleSided" : true,
            "name" : "Mat3d66-1003769-63-9750",
            "pbrMetallicRoughness" : {
                "baseColorTexture" : {
                    "index" : 2
                },
                "metallicFactor" : 0,
                "roughnessFactor" : 0.5
            }
        },
        {
            "doubleSided" : true,
            "name" : "Mat3d66-1003769-64-2433",
            "pbrMetallicRoughness" : {
                "baseColorTexture" : {
                    "index" : 3
                },
                "metallicFactor" : 0,
                "roughnessFactor" : 0.5
            }
        },
        {
            "doubleSided" : true,
            "name" : "Mat3d66-1003769-65-9115",
            "pbrMetallicRoughness" : {
                "baseColorTexture" : {
                    "index" : 4
                },
                "metallicFactor" : 0,
                "roughnessFactor" : 0.5
            }
        }
    ],
    "meshes" : [
        {
            "name" : "Obj3d66-1003769-81-385",
            "primitives" : [
                {
                    "attributes" : {
                        "POSITION" : 0,
                        "NORMAL" : 1,
                        "TEXCOORD_0" : 2
                    },
                    "indices" : 3,
                    "material" : 0
                },
                {
                    "attributes" : {
                        "POSITION" : 4,
                        "NORMAL" : 5,
                        "TEXCOORD_0" : 6
                    },
                    "indices" : 7,
                    "material" : 1
                },
                {
                    "attributes" : {
                        "POSITION" : 8,
                        "NORMAL" : 9,
                        "TEXCOORD_0" : 10
                    },
                    "indices" : 11,
                    "material" : 2
                },
                {
                    "attributes" : {
                        "POSITION" : 12,
                        "NORMAL" : 13,
                        "TEXCOORD_0" : 14
                    },
                    "indices" : 15,
                    "material" : 3
                },
                {
                    "attributes" : {
                        "POSITION" : 16,
                        "NORMAL" : 17,
                        "TEXCOORD_0" : 18
                    },
                    "indices" : 19,
                    "material" : 4
                },
                {
                    "attributes" : {
                        "POSITION" : 20,
                        "NORMAL" : 21,
                        "TEXCOORD_0" : 22
                    },
                    "indices" : 23,
                    "material" : 5
                },
                {
                    "attributes" : {
                        "POSITION" : 24,
                        "NORMAL" : 25,
                        "TEXCOORD_0" : 26
                    },
                    "indices" : 27,
                    "material" : 6
                },
                {
                    "attributes" : {
                        "POSITION" : 28,
                        "NORMAL" : 29,
                        "TEXCOORD_0" : 30
                    },
                    "indices" : 31,
                    "material" : 7
                },
                {
                    "attributes" : {
                        "POSITION" : 32,
                        "NORMAL" : 33,
                        "TEXCOORD_0" : 34
                    },
                    "indices" : 35,
                    "material" : 8
                }
            ]
        }
    ],
    "textures" : [
        {
            "sampler" : 0,
            "source" : 0
        },
        {
            "sampler" : 0,
            "source" : 1
        },
        {
            "sampler" : 0,
            "source" : 2
        },
        {
            "sampler" : 0,
            "source" : 3
        },
        {
            "sampler" : 0,
            "source" : 4
        }
    ],
    "images" : [
        {
            "bufferView" : 4,
            "mimeType" : "image/jpeg",
            "name" : "Image_0"
        },
        {
            "bufferView" : 21,
            "mimeType" : "image/jpeg",
            "name" : "Image_1"
        },
        {
            "bufferView" : 30,
            "mimeType" : "image/jpeg",
            "name" : "Image_2"
        },
        {
            "bufferView" : 35,
            "mimeType" : "image/jpeg",
            "name" : "Image_3"
        },
        {
            "bufferView" : 40,
            "mimeType" : "image/jpeg",
            "name" : "Image_4"
        }
    ],
    "accessors" : [
        {
            "bufferView" : 0,
            "componentType" : 5126,
            "count" : 26,
            "max" : [
                9.594806671142578,
                19.710031509399414,
                9.537840843200684
            ],
            "min" : [
                -9.60516357421875,
                16.78599739074707,
                -9.782160758972168
            ],
            "type" : "VEC3"
        },
        {
            "bufferView" : 1,
            "componentType" : 5126,
            "count" : 26,
            "type" : "VEC3"
        },
        {
            "bufferView" : 2,
            "componentType" : 5126,
            "count" : 26,
            "type" : "VEC2"
        },
        {
            "bufferView" : 3,
            "componentType" : 5123,
            "count" : 30,
            "type" : "SCALAR"
        },
        {
            "bufferView" : 5,
            "componentType" : 5126,
            "count" : 1341,
            "max" : [
                36.543121337890625,
                16.435997009277344,
                11.081504821777344
            ],
            "min" : [
                -36.53315734863281,
                0.5249967575073242,
                -8.732163429260254
            ],
            "type" : "VEC3"
        },
        {
            "bufferView" : 6,
            "componentType" : 5126,
            "count" : 1341,
            "type" : "VEC3"
        },
        {
            "bufferView" : 7,
            "componentType" : 5126,
            "count" : 1341,
            "type" : "VEC2"
        },
        {
            "bufferView" : 8,
            "componentType" : 5123,
            "count" : 1776,
            "type" : "SCALAR"
        },
        {
            "bufferView" : 9,
            "componentType" : 5126,
            "count" : 17273,
            "max" : [
                36.59312057495117,
                16.48599624633789,
                11.10399055480957
            ],
            "min" : [
                -36.58316421508789,
                0.47499752044677734,
                -8.782182693481445
            ],
            "type" : "VEC3"
        },
        {
            "bufferView" : 10,
            "componentType" : 5126,
            "count" : 17273,
            "type" : "VEC3"
        },
        {
            "bufferView" : 11,
            "componentType" : 5126,
            "count" : 17273,
            "type" : "VEC2"
        },
        {
            "bufferView" : 12,
            "componentType" : 5123,
            "count" : 21816,
            "type" : "SCALAR"
        },
        {
            "bufferView" : 13,
            "componentType" : 5126,
            "count" : 722,
            "max" : [
                36.59312057495117,
                12.917720794677734,
                10.51989459991455
            ],
            "min" : [
                -36.58316421508789,
                12.385299682617188,
                8.318727493286133
            ],
            "type" : "VEC3"
        },
        {
            "bufferView" : 14,
            "componentType" : 5126,
            "count" : 722,
            "type" : "VEC3"
        },
        {
            "bufferView" : 15,
            "componentType" : 5126,
            "count" : 722,
            "type" : "VEC2"
        },
        {
            "bufferView" : 16,
            "componentType" : 5123,
            "count" : 1020,
            "type" : "SCALAR"
        },
        {
            "bufferView" : 17,
            "componentType" : 5126,
            "count" : 33026,
            "max" : [
                37.34312057495117,
                0.524998664855957,
                15.744436264038086
            ],
            "min" : [
                -37.3331413269043,
                -2.86102294921875e-06,
                8.615026473999023
            ],
            "type" : "VEC3"
        },
        {
            "bufferView" : 18,
            "componentType" : 5126,
            "count" : 33026,
            "type" : "VEC3"
        },
        {
            "bufferView" : 19,
            "componentType" : 5126,
            "count" : 33026,
            "type" : "VEC2"
        },
        {
            "bufferView" : 20,
            "componentType" : 5123,
            "count" : 67980,
            "type" : "SCALAR"
        },
        {
            "bufferView" : 22,
            "componentType" : 5126,
            "count" : 48,
            "max" : [
                4.608729362487793,
                0.5699253082275391,
                15.53681468963623
            ],
            "min" : [
                -4.469092845916748,
                0.524998664855957,
                14.26937198638916
            ],
            "type" : "VEC3"
        },
        {
            "bufferView" : 23,
            "componentType" : 5126,
            "count" : 48,
            "type" : "VEC3"
        },
        {
            "bufferView" : 24,
            "componentType" : 5126,
            "count" : 48,
            "type" : "VEC2"
        },
        {
            "bufferView" : 25,
            "componentType" : 5123,
            "count" : 60,
            "type" : "SCALAR"
        },
        {
            "bufferView" : 26,
            "componentType" : 5126,
            "count" : 6185,
            "max" : [
                38.193111419677734,
                16.785999298095703,
                11.828999519348145
            ],
            "min" : [
                -38.18315124511719,
                0.02499675750732422,
                -9.982168197631836
            ],
            "type" : "VEC3"
        },
        {
            "bufferView" : 27,
            "componentType" : 5126,
            "count" : 6185,
            "type" : "VEC3"
        },
        {
            "bufferView" : 28,
            "componentType" : 5126,
            "count" : 6185,
            "type" : "VEC2"
        },
        {
            "bufferView" : 29,
            "componentType" : 5123,
            "count" : 7458,
            "type" : "SCALAR"
        },
        {
            "bufferView" : 31,
            "componentType" : 5126,
            "count" : 1886,
            "max" : [
                38.093116760253906,
                15.125,
                11.778989791870117
            ],
            "min" : [
                -38.08315658569336,
                0.02499103546142578,
                -9.662199974060059
            ],
            "type" : "VEC3"
        },
        {
            "bufferView" : 32,
            "componentType" : 5126,
            "count" : 1886,
            "type" : "VEC3"
        },
        {
            "bufferView" : 33,
            "componentType" : 5126,
            "count" : 1886,
            "type" : "VEC2"
        },
        {
            "bufferView" : 34,
            "componentType" : 5123,
            "count" : 2052,
            "type" : "SCALAR"
        },
        {
            "bufferView" : 36,
            "componentType" : 5126,
            "count" : 329,
            "max" : [
                37.79310989379883,
                13.568552017211914,
                10.30609130859375
            ],
            "min" : [
                -37.78314971923828,
                0.02499866485595703,
                -8.982165336608887
            ],
            "type" : "VEC3"
        },
        {
            "bufferView" : 37,
            "componentType" : 5126,
            "count" : 329,
            "type" : "VEC3"
        },
        {
            "bufferView" : 38,
            "componentType" : 5126,
            "count" : 329,
            "type" : "VEC2"
        },
        {
            "bufferView" : 39,
            "componentType" : 5123,
            "count" : 420,
            "type" : "SCALAR"
        }
    ],
    "bufferViews" : [
        {
            "buffer" : 0,
            "byteLength" : 312,
            "byteOffset" : 0
        },
        {
            "buffer" : 0,
            "byteLength" : 312,
            "byteOffset" : 312
        },
        {
            "buffer" : 0,
            "byteLength" : 208,
            "byteOffset" : 624
        },
        {
            "buffer" : 0,
            "byteLength" : 60,
            "byteOffset" : 832
        },
        {
            "buffer" : 0,
            "byteLength" : 189574,
            "byteOffset" : 892
        },
        {
            "buffer" : 0,
            "byteLength" : 16092,
            "byteOffset" : 190468
        },
        {
            "buffer" : 0,
            "byteLength" : 16092,
            "byteOffset" : 206560
        },
        {
            "buffer" : 0,
            "byteLength" : 10728,
            "byteOffset" : 222652
        },
        {
            "buffer" : 0,
            "byteLength" : 3552,
            "byteOffset" : 233380
        },
        {
            "buffer" : 0,
            "byteLength" : 207276,
            "byteOffset" : 236932
        },
        {
            "buffer" : 0,
            "byteLength" : 207276,
            "byteOffset" : 444208
        },
        {
            "buffer" : 0,
            "byteLength" : 138184,
            "byteOffset" : 651484
        },
        {
            "buffer" : 0,
            "byteLength" : 43632,
            "byteOffset" : 789668
        },
        {
            "buffer" : 0,
            "byteLength" : 8664,
            "byteOffset" : 833300
        },
        {
            "buffer" : 0,
            "byteLength" : 8664,
            "byteOffset" : 841964
        },
        {
            "buffer" : 0,
            "byteLength" : 5776,
            "byteOffset" : 850628
        },
        {
            "buffer" : 0,
            "byteLength" : 2040,
            "byteOffset" : 856404
        },
        {
            "buffer" : 0,
            "byteLength" : 396312,
            "byteOffset" : 858444
        },
        {
            "buffer" : 0,
            "byteLength" : 396312,
            "byteOffset" : 1254756
        },
        {
            "buffer" : 0,
            "byteLength" : 264208,
            "byteOffset" : 1651068
        },
        {
            "buffer" : 0,
            "byteLength" : 135960,
            "byteOffset" : 1915276
        },
        {
            "buffer" : 0,
            "byteLength" : 132586,
            "byteOffset" : 2051236
        },
        {
            "buffer" : 0,
            "byteLength" : 576,
            "byteOffset" : 2183824
        },
        {
            "buffer" : 0,
            "byteLength" : 576,
            "byteOffset" : 2184400
        },
        {
            "buffer" : 0,
            "byteLength" : 384,
            "byteOffset" : 2184976
        },
        {
            "buffer" : 0,
            "byteLength" : 120,
            "byteOffset" : 2185360
        },
        {
            "buffer" : 0,
            "byteLength" : 74220,
            "byteOffset" : 2185480
        },
        {
            "buffer" : 0,
            "byteLength" : 74220,
            "byteOffset" : 2259700
        },
        {
            "buffer" : 0,
            "byteLength" : 49480,
            "byteOffset" : 2333920
        },
        {
            "buffer" : 0,
            "byteLength" : 14916,
            "byteOffset" : 2383400
        },
        {
            "buffer" : 0,
            "byteLength" : 125951,
            "byteOffset" : 2398316
        },
        {
            "buffer" : 0,
            "byteLength" : 22632,
            "byteOffset" : 2524268
        },
        {
            "buffer" : 0,
            "byteLength" : 22632,
            "byteOffset" : 2546900
        },
        {
            "buffer" : 0,
            "byteLength" : 15088,
            "byteOffset" : 2569532
        },
        {
            "buffer" : 0,
            "byteLength" : 4104,
            "byteOffset" : 2584620
        },
        {
            "buffer" : 0,
            "byteLength" : 138495,
            "byteOffset" : 2588724
        },
        {
            "buffer" : 0,
            "byteLength" : 3948,
            "byteOffset" : 2727220
        },
        {
            "buffer" : 0,
            "byteLength" : 3948,
            "byteOffset" : 2731168
        },
        {
            "buffer" : 0,
            "byteLength" : 2632,
            "byteOffset" : 2735116
        },
        {
            "buffer" : 0,
            "byteLength" : 840,
            "byteOffset" : 2737748
        },
        {
            "buffer" : 0,
            "byteLength" : 37172,
            "byteOffset" : 2738588
        }
    ],
    "samplers" : [
        {
            "magFilter" : 9729,
            "minFilter" : 9987
        }
    ],
    "buffers" : [
        {
            "byteLength" : 2775760,
            "uri" : "data:application/octet-stream;base64,"
        }
    ]
}
