{"asset":{"generator":"Khronos glTF Blender I/O v1.6.16","version":"2.0"},"scene":0,"scenes":[{"name":"Scene","nodes":[0]}],"nodes":[{"mesh":0,"name":"changfang_3"}],"materials":[{"name":"Material__36","pbrMetallicRoughness":{"baseColorFactor":[0.5879999995231628,0.5879999995231628,0.5879999995231628,1],"baseColorTexture":{"index":0},"metallicFactor":0}},{"name":"Material__38","pbrMetallicRoughness":{"baseColorFactor":[0.5879999995231628,0.5879999995231628,0.5879999995231628,1],"baseColorTexture":{"index":1},"metallicFactor":0}}],"meshes":[{"name":"Default-Material__36","primitives":[{"attributes":{"POSITION":0,"NORMAL":1,"TEXCOORD_0":2},"indices":3,"material":0},{"attributes":{"POSITION":4,"NORMAL":5,"TEXCOORD_0":6},"indices":7,"material":1}]}],"textures":[{"sampler":0,"source":0},{"sampler":0,"source":1}],"images":[{"bufferView":4,"mimeType":"image/png","name":"Image_0"},{"bufferView":9,"mimeType":"image/png","name":"Image_1"}],"accessors":[{"bufferView":0,"componentType":5126,"count":540,"max":[11.066278457641602,5.118819713592529,13.63892936706543],"min":[-11.066278457641602,0,-13.63892936706543],"type":"VEC3"},{"bufferView":1,"componentType":5126,"count":540,"type":"VEC3"},{"bufferView":2,"componentType":5126,"count":540,"type":"VEC2"},{"bufferView":3,"componentType":5123,"count":1044,"type":"SCALAR"},{"bufferView":5,"componentType":5126,"count":113,"max":[10.880663871765137,3.0984151363372803,12.916500091552734],"min":[-10.880651473999023,0,-12.916500091552734],"type":"VEC3"},{"bufferView":6,"componentType":5126,"count":113,"type":"VEC3"},{"bufferView":7,"componentType":5126,"count":113,"type":"VEC2"},{"bufferView":8,"componentType":5123,"count":144,"type":"SCALAR"}],"bufferViews":[{"buffer":0,"byteLength":6480,"byteOffset":0},{"buffer":0,"byteLength":6480,"byteOffset":6480},{"buffer":0,"byteLength":4320,"byteOffset":12960},{"buffer":0,"byteLength":2088,"byteOffset":17280},{"buffer":0,"byteLength":179275,"byteOffset":19368},{"buffer":0,"byteLength":1356,"byteOffset":198644},{"buffer":0,"byteLength":1356,"byteOffset":200000},{"buffer":0,"byteLength":904,"byteOffset":201356},{"buffer":0,"byteLength":288,"byteOffset":202260},{"buffer":0,"byteLength":41385,"byteOffset":202548}],"samplers":[{"magFilter":9729,"minFilter":9987}],"buffers":[{"byteLength":243936,"uri":"data:application/octet-stream;base64,"}]}
