{
    "asset" : {
        "generator" : "Khronos glTF Blender I/O v3.4.49",
        "version" : "2.0"
    },
    "scene" : 0,
    "scenes" : [
        {
            "name" : "Scene",
            "nodes" : [
                0
            ]
        }
    ],
    "nodes" : [
        {
            "mesh" : 0,
            "name" : "\u5382\u623f28"
        }
    ],
    "materials" : [
        {
            "doubleSided" : true,
            "name" : "Mat3d66-9137221-129-45803",
            "pbrMetallicRoughness" : {
                "baseColorTexture" : {
                    "index" : 0
                },
                "metallicFactor" : 0
            }
        },
        {
            "doubleSided" : true,
            "name" : "Mat3d66-9137221-98-53187",
            "pbrMetallicRoughness" : {
                "baseColorTexture" : {
                    "index" : 1
                },
                "metallicFactor" : 0
            }
        },
        {
            "doubleSided" : true,
            "name" : "Mat3d66-9137221-97-27067",
            "pbrMetallicRoughness" : {
                "baseColorTexture" : {
                    "index" : 2
                },
                "metallicFactor" : 0
            }
        },
        {
            "doubleSided" : true,
            "name" : "Mat3d66-9137221-99-14111",
            "pbrMetallicRoughness" : {
                "baseColorFactor" : [
                    0.2509799897670746,
                    0.2980389893054962,
                    0.34902000427246094,
                    1
                ],
                "metallicFactor" : 0
            }
        },
        {
            "doubleSided" : true,
            "name" : "Mat3d66-9137221-100-82038",
            "pbrMetallicRoughness" : {
                "baseColorTexture" : {
                    "index" : 3
                },
                "metallicFactor" : 0
            }
        },
        {
            "doubleSided" : true,
            "name" : "Mat3d66-9137221-101-85322",
            "pbrMetallicRoughness" : {
                "baseColorTexture" : {
                    "index" : 4
                },
                "metallicFactor" : 0
            }
        },
        {
            "doubleSided" : true,
            "name" : "Mat3d66-9137221-102-30700",
            "pbrMetallicRoughness" : {
                "baseColorFactor" : [
                    0.564706027507782,
                    0.7372549772262573,
                    0.8352940082550049,
                    1
                ],
                "metallicFactor" : 0
            }
        },
        {
            "doubleSided" : true,
            "name" : "Mat3d66-9137221-103-66084",
            "pbrMetallicRoughness" : {
                "baseColorTexture" : {
                    "index" : 5
                },
                "metallicFactor" : 0
            }
        }
    ],
    "meshes" : [
        {
            "name" : "Obj3d66-9137221-9744-70",
            "primitives" : [
                {
                    "attributes" : {
                        "POSITION" : 0,
                        "TEXCOORD_0" : 1,
                        "NORMAL" : 2
                    },
                    "indices" : 3,
                    "material" : 0
                },
                {
                    "attributes" : {
                        "POSITION" : 4,
                        "TEXCOORD_0" : 5,
                        "NORMAL" : 6
                    },
                    "indices" : 7,
                    "material" : 1
                },
                {
                    "attributes" : {
                        "POSITION" : 8,
                        "TEXCOORD_0" : 9,
                        "NORMAL" : 10
                    },
                    "indices" : 11,
                    "material" : 2
                },
                {
                    "attributes" : {
                        "POSITION" : 12,
                        "TEXCOORD_0" : 13,
                        "NORMAL" : 14
                    },
                    "indices" : 15,
                    "material" : 3
                },
                {
                    "attributes" : {
                        "POSITION" : 16,
                        "TEXCOORD_0" : 17,
                        "NORMAL" : 18
                    },
                    "indices" : 19,
                    "material" : 4
                },
                {
                    "attributes" : {
                        "POSITION" : 20,
                        "TEXCOORD_0" : 21,
                        "NORMAL" : 22
                    },
                    "indices" : 23,
                    "material" : 5
                },
                {
                    "attributes" : {
                        "POSITION" : 24,
                        "TEXCOORD_0" : 25,
                        "NORMAL" : 26
                    },
                    "indices" : 27,
                    "material" : 6
                },
                {
                    "attributes" : {
                        "POSITION" : 28,
                        "TEXCOORD_0" : 29,
                        "NORMAL" : 30
                    },
                    "indices" : 31,
                    "material" : 7
                }
            ]
        }
    ],
    "textures" : [
        {
            "sampler" : 0,
            "source" : 0
        },
        {
            "sampler" : 0,
            "source" : 1
        },
        {
            "sampler" : 0,
            "source" : 2
        },
        {
            "sampler" : 0,
            "source" : 3
        },
        {
            "sampler" : 0,
            "source" : 4
        },
        {
            "sampler" : 0,
            "source" : 5
        }
    ],
    "images" : [
        {
            "bufferView" : 4,
            "mimeType" : "image/jpeg",
            "name" : "3d66Model-9137221-files-29"
        },
        {
            "bufferView" : 9,
            "mimeType" : "image/jpeg",
            "name" : "3d66Model-9137221-files-8"
        },
        {
            "bufferView" : 14,
            "mimeType" : "image/jpeg",
            "name" : "3d66Model-9137221-files-20"
        },
        {
            "bufferView" : 23,
            "mimeType" : "image/jpeg",
            "name" : "3d66Model-9137221-files-18"
        },
        {
            "bufferView" : 28,
            "mimeType" : "image/jpeg",
            "name" : "3d66Model-9137221-files-27"
        },
        {
            "bufferView" : 37,
            "mimeType" : "image/jpeg",
            "name" : "3d66Model-9137221-files-21"
        }
    ],
    "accessors" : [
        {
            "bufferView" : 0,
            "componentType" : 5126,
            "count" : 36,
            "max" : [
                25.209075927734375,
                9.44687271118164,
                10.061455726623535
            ],
            "min" : [
                -25.153566360473633,
                7.362280368804932,
                -10.142049789428711
            ],
            "type" : "VEC3"
        },
        {
            "bufferView" : 1,
            "componentType" : 5126,
            "count" : 36,
            "type" : "VEC2"
        },
        {
            "bufferView" : 2,
            "componentType" : 5126,
            "count" : 36,
            "type" : "VEC3"
        },
        {
            "bufferView" : 3,
            "componentType" : 5123,
            "count" : 60,
            "type" : "SCALAR"
        },
        {
            "bufferView" : 5,
            "componentType" : 5126,
            "count" : 792,
            "max" : [
                24.817251205444336,
                9.37755012512207,
                9.986065864562988
            ],
            "min" : [
                -24.793413162231445,
                1.1205673217773438e-05,
                -10.013965606689453
            ],
            "type" : "VEC3"
        },
        {
            "bufferView" : 6,
            "componentType" : 5126,
            "count" : 792,
            "type" : "VEC2"
        },
        {
            "bufferView" : 7,
            "componentType" : 5126,
            "count" : 792,
            "type" : "VEC3"
        },
        {
            "bufferView" : 8,
            "componentType" : 5123,
            "count" : 1488,
            "type" : "SCALAR"
        },
        {
            "bufferView" : 10,
            "componentType" : 5126,
            "count" : 96,
            "max" : [
                24.825517654418945,
                1.4844410419464111,
                9.996051788330078
            ],
            "min" : [
                -24.80166244506836,
                1.4543533325195312e-05,
                -10.023961067199707
            ],
            "type" : "VEC3"
        },
        {
            "bufferView" : 11,
            "componentType" : 5126,
            "count" : 96,
            "type" : "VEC2"
        },
        {
            "bufferView" : 12,
            "componentType" : 5126,
            "count" : 96,
            "type" : "VEC3"
        },
        {
            "bufferView" : 13,
            "componentType" : 5123,
            "count" : 168,
            "type" : "SCALAR"
        },
        {
            "bufferView" : 15,
            "componentType" : 5126,
            "count" : 3318,
            "max" : [
                24.70956039428711,
                4.462327480316162,
                9.855836868286133
            ],
            "min" : [
                -24.68572998046875,
                1.484434962272644,
                -9.883757591247559
            ],
            "type" : "VEC3"
        },
        {
            "bufferView" : 16,
            "componentType" : 5126,
            "count" : 3318,
            "type" : "VEC2"
        },
        {
            "bufferView" : 17,
            "componentType" : 5126,
            "count" : 3318,
            "type" : "VEC3"
        },
        {
            "bufferView" : 18,
            "componentType" : 5123,
            "count" : 4992,
            "type" : "SCALAR"
        },
        {
            "bufferView" : 19,
            "componentType" : 5126,
            "count" : 48,
            "max" : [
                15.787232398986816,
                0.10001802444458008,
                11.586051940917969
            ],
            "min" : [
                -15.763401985168457,
                1.6689300537109375e-05,
                9.78603744506836
            ],
            "type" : "VEC3"
        },
        {
            "bufferView" : 20,
            "componentType" : 5126,
            "count" : 48,
            "type" : "VEC2"
        },
        {
            "bufferView" : 21,
            "componentType" : 5126,
            "count" : 48,
            "type" : "VEC3"
        },
        {
            "bufferView" : 22,
            "componentType" : 5123,
            "count" : 72,
            "type" : "SCALAR"
        },
        {
            "bufferView" : 24,
            "componentType" : 5126,
            "count" : 48,
            "max" : [
                15.397578239440918,
                5.453307151794434,
                9.886052131652832
            ],
            "min" : [
                -15.373749732971191,
                0.013168573379516602,
                9.786036491394043
            ],
            "type" : "VEC3"
        },
        {
            "bufferView" : 25,
            "componentType" : 5126,
            "count" : 48,
            "type" : "VEC2"
        },
        {
            "bufferView" : 26,
            "componentType" : 5126,
            "count" : 48,
            "type" : "VEC3"
        },
        {
            "bufferView" : 27,
            "componentType" : 5123,
            "count" : 72,
            "type" : "SCALAR"
        },
        {
            "bufferView" : 29,
            "componentType" : 5126,
            "count" : 96,
            "max" : [
                24.676515579223633,
                4.4623212814331055,
                9.815861701965332
            ],
            "min" : [
                -24.652687072753906,
                1.4844406843185425,
                -9.843759536743164
            ],
            "type" : "VEC3"
        },
        {
            "bufferView" : 30,
            "componentType" : 5126,
            "count" : 96,
            "type" : "VEC2"
        },
        {
            "bufferView" : 31,
            "componentType" : 5126,
            "count" : 96,
            "type" : "VEC3"
        },
        {
            "bufferView" : 32,
            "componentType" : 5123,
            "count" : 144,
            "type" : "SCALAR"
        },
        {
            "bufferView" : 33,
            "componentType" : 5126,
            "count" : 24,
            "max" : [
                24.65188217163086,
                0.10001540184020996,
                9.786040306091309
            ],
            "min" : [
                -24.628026962280273,
                1.5020370483398438e-05,
                -9.813965797424316
            ],
            "type" : "VEC3"
        },
        {
            "bufferView" : 34,
            "componentType" : 5126,
            "count" : 24,
            "type" : "VEC2"
        },
        {
            "bufferView" : 35,
            "componentType" : 5126,
            "count" : 24,
            "type" : "VEC3"
        },
        {
            "bufferView" : 36,
            "componentType" : 5123,
            "count" : 36,
            "type" : "SCALAR"
        }
    ],
    "bufferViews" : [
        {
            "buffer" : 0,
            "byteLength" : 432,
            "byteOffset" : 0,
            "target" : 34962
        },
        {
            "buffer" : 0,
            "byteLength" : 288,
            "byteOffset" : 432,
            "target" : 34962
        },
        {
            "buffer" : 0,
            "byteLength" : 432,
            "byteOffset" : 720,
            "target" : 34962
        },
        {
            "buffer" : 0,
            "byteLength" : 120,
            "byteOffset" : 1152,
            "target" : 34963
        },
        {
            "buffer" : 0,
            "byteLength" : 67410,
            "byteOffset" : 1272
        },
        {
            "buffer" : 0,
            "byteLength" : 9504,
            "byteOffset" : 68684,
            "target" : 34962
        },
        {
            "buffer" : 0,
            "byteLength" : 6336,
            "byteOffset" : 78188,
            "target" : 34962
        },
        {
            "buffer" : 0,
            "byteLength" : 9504,
            "byteOffset" : 84524,
            "target" : 34962
        },
        {
            "buffer" : 0,
            "byteLength" : 2976,
            "byteOffset" : 94028,
            "target" : 34963
        },
        {
            "buffer" : 0,
            "byteLength" : 19476,
            "byteOffset" : 97004
        },
        {
            "buffer" : 0,
            "byteLength" : 1152,
            "byteOffset" : 116480,
            "target" : 34962
        },
        {
            "buffer" : 0,
            "byteLength" : 768,
            "byteOffset" : 117632,
            "target" : 34962
        },
        {
            "buffer" : 0,
            "byteLength" : 1152,
            "byteOffset" : 118400,
            "target" : 34962
        },
        {
            "buffer" : 0,
            "byteLength" : 336,
            "byteOffset" : 119552,
            "target" : 34963
        },
        {
            "buffer" : 0,
            "byteLength" : 9364,
            "byteOffset" : 119888
        },
        {
            "buffer" : 0,
            "byteLength" : 39816,
            "byteOffset" : 129252,
            "target" : 34962
        },
        {
            "buffer" : 0,
            "byteLength" : 26544,
            "byteOffset" : 169068,
            "target" : 34962
        },
        {
            "buffer" : 0,
            "byteLength" : 39816,
            "byteOffset" : 195612,
            "target" : 34962
        },
        {
            "buffer" : 0,
            "byteLength" : 9984,
            "byteOffset" : 235428,
            "target" : 34963
        },
        {
            "buffer" : 0,
            "byteLength" : 576,
            "byteOffset" : 245412,
            "target" : 34962
        },
        {
            "buffer" : 0,
            "byteLength" : 384,
            "byteOffset" : 245988,
            "target" : 34962
        },
        {
            "buffer" : 0,
            "byteLength" : 576,
            "byteOffset" : 246372,
            "target" : 34962
        },
        {
            "buffer" : 0,
            "byteLength" : 144,
            "byteOffset" : 246948,
            "target" : 34963
        },
        {
            "buffer" : 0,
            "byteLength" : 132586,
            "byteOffset" : 247092
        },
        {
            "buffer" : 0,
            "byteLength" : 576,
            "byteOffset" : 379680,
            "target" : 34962
        },
        {
            "buffer" : 0,
            "byteLength" : 384,
            "byteOffset" : 380256,
            "target" : 34962
        },
        {
            "buffer" : 0,
            "byteLength" : 576,
            "byteOffset" : 380640,
            "target" : 34962
        },
        {
            "buffer" : 0,
            "byteLength" : 144,
            "byteOffset" : 381216,
            "target" : 34963
        },
        {
            "buffer" : 0,
            "byteLength" : 900740,
            "byteOffset" : 381360
        },
        {
            "buffer" : 0,
            "byteLength" : 1152,
            "byteOffset" : 1282100,
            "target" : 34962
        },
        {
            "buffer" : 0,
            "byteLength" : 768,
            "byteOffset" : 1283252,
            "target" : 34962
        },
        {
            "buffer" : 0,
            "byteLength" : 1152,
            "byteOffset" : 1284020,
            "target" : 34962
        },
        {
            "buffer" : 0,
            "byteLength" : 288,
            "byteOffset" : 1285172,
            "target" : 34963
        },
        {
            "buffer" : 0,
            "byteLength" : 288,
            "byteOffset" : 1285460,
            "target" : 34962
        },
        {
            "buffer" : 0,
            "byteLength" : 192,
            "byteOffset" : 1285748,
            "target" : 34962
        },
        {
            "buffer" : 0,
            "byteLength" : 288,
            "byteOffset" : 1285940,
            "target" : 34962
        },
        {
            "buffer" : 0,
            "byteLength" : 72,
            "byteOffset" : 1286228,
            "target" : 34963
        },
        {
            "buffer" : 0,
            "byteLength" : 37172,
            "byteOffset" : 1286300
        }
    ],
    "samplers" : [
        {
            "magFilter" : 9729,
            "minFilter" : 9987
        }
    ],
    "buffers" : [
        {
            "byteLength" : 1323472,
            "uri" : "data:application/octet-stream;base64,"
        }
    ]
}
