{
    "asset" : {
        "generator" : "Khronos glTF Blender I/O v1.8.19",
        "version" : "2.0"
    },
    "scene" : 0,
    "scenes" : [
        {
            "name" : "Scene",
            "nodes" : [
                0
            ]
        }
    ],
    "nodes" : [
        {
            "mesh" : 0,
            "name" : "\u529e\u516c\u697c33"
        }
    ],
    "materials" : [
        {
            "doubleSided" : true,
            "name" : "Mat3d66-1003769-90-8416",
            "pbrMetallicRoughness" : {
                "baseColorFactor" : [
                    0.2509799897670746,
                    0.2980389893054962,
                    0.34902000427246094,
                    1
                ],
                "metallicFactor" : 0,
                "roughnessFactor" : 0.5
            }
        },
        {
            "alphaMode" : "BLEND",
            "doubleSided" : true,
            "name" : "Mat3d66-1003769-91-5194",
            "pbrMetallicRoughness" : {
                "baseColorFactor" : [
                    0.564706027507782,
                    0.7372549772262573,
                    0.8352940082550049,
                    0.8503937125205994
                ],
                "metallicFactor" : 0,
                "roughnessFactor" : 0.5
            }
        },
        {
            "doubleSided" : true,
            "name" : "Mat3d66-1003769-92-735",
            "pbrMetallicRoughness" : {
                "baseColorFactor" : [
                    0.800000011920929,
                    0.800000011920929,
                    0.800000011920929,
                    1
                ],
                "metallicFactor" : 0,
                "roughnessFactor" : 0.5
            }
        },
        {
            "doubleSided" : true,
            "name" : "Mat3d66-1003769-93-1044",
            "pbrMetallicRoughness" : {
                "baseColorFactor" : [
                    0.800000011920929,
                    0.800000011920929,
                    0.800000011920929,
                    1
                ],
                "metallicFactor" : 0,
                "roughnessFactor" : 0.5
            }
        },
        {
            "doubleSided" : true,
            "name" : "Mat3d66-1003769-94-997",
            "pbrMetallicRoughness" : {
                "baseColorFactor" : [
                    0.800000011920929,
                    0.800000011920929,
                    0.800000011920929,
                    1
                ],
                "metallicFactor" : 0,
                "roughnessFactor" : 0.5
            }
        },
        {
            "doubleSided" : true,
            "name" : "Mat3d66-1003769-95-3701",
            "pbrMetallicRoughness" : {
                "baseColorFactor" : [
                    0.800000011920929,
                    0.800000011920929,
                    0.800000011920929,
                    1
                ],
                "metallicFactor" : 0,
                "roughnessFactor" : 0.5
            }
        },
        {
            "doubleSided" : true,
            "name" : "Mat3d66-1003769-89-8459",
            "pbrMetallicRoughness" : {
                "metallicFactor" : 0,
                "roughnessFactor" : 0.5
            }
        }
    ],
    "meshes" : [
        {
            "name" : "Obj3d66-1003769-115-6",
            "primitives" : [
                {
                    "attributes" : {
                        "POSITION" : 0,
                        "NORMAL" : 1,
                        "TEXCOORD_0" : 2
                    },
                    "indices" : 3,
                    "material" : 0
                },
                {
                    "attributes" : {
                        "POSITION" : 4,
                        "NORMAL" : 5,
                        "TEXCOORD_0" : 6
                    },
                    "indices" : 7,
                    "material" : 1
                },
                {
                    "attributes" : {
                        "POSITION" : 8,
                        "NORMAL" : 9,
                        "TEXCOORD_0" : 10
                    },
                    "indices" : 11,
                    "material" : 2
                },
                {
                    "attributes" : {
                        "POSITION" : 12,
                        "NORMAL" : 13,
                        "TEXCOORD_0" : 14
                    },
                    "indices" : 15,
                    "material" : 3
                },
                {
                    "attributes" : {
                        "POSITION" : 16,
                        "NORMAL" : 17,
                        "TEXCOORD_0" : 18
                    },
                    "indices" : 19,
                    "material" : 4
                },
                {
                    "attributes" : {
                        "POSITION" : 20,
                        "NORMAL" : 21,
                        "TEXCOORD_0" : 22
                    },
                    "indices" : 23,
                    "material" : 5
                },
                {
                    "attributes" : {
                        "POSITION" : 24,
                        "NORMAL" : 25,
                        "TEXCOORD_0" : 26
                    },
                    "indices" : 27,
                    "material" : 6
                }
            ]
        }
    ],
    "accessors" : [
        {
            "bufferView" : 0,
            "componentType" : 5126,
            "count" : 13391,
            "max" : [
                23.44867515563965,
                10.749998092651367,
                9.719233512878418
            ],
            "min" : [
                -23.45132827758789,
                0.4499974250793457,
                -1.7807679176330566
            ],
            "type" : "VEC3"
        },
        {
            "bufferView" : 1,
            "componentType" : 5126,
            "count" : 13391,
            "type" : "VEC3"
        },
        {
            "bufferView" : 2,
            "componentType" : 5126,
            "count" : 13391,
            "type" : "VEC2"
        },
        {
            "bufferView" : 3,
            "componentType" : 5123,
            "count" : 16752,
            "type" : "SCALAR"
        },
        {
            "bufferView" : 4,
            "componentType" : 5126,
            "count" : 246,
            "max" : [
                23.14592170715332,
                10.749998092651367,
                9.516511917114258
            ],
            "min" : [
                -23.1485652923584,
                0.4499959945678711,
                -1.7807650566101074
            ],
            "type" : "VEC3"
        },
        {
            "bufferView" : 5,
            "componentType" : 5126,
            "count" : 246,
            "type" : "VEC3"
        },
        {
            "bufferView" : 6,
            "componentType" : 5126,
            "count" : 246,
            "type" : "VEC2"
        },
        {
            "bufferView" : 7,
            "componentType" : 5123,
            "count" : 288,
            "type" : "SCALAR"
        },
        {
            "bufferView" : 8,
            "componentType" : 5126,
            "count" : 6320,
            "max" : [
                23.498640060424805,
                13.25,
                9.86923599243164
            ],
            "min" : [
                -23.501304626464844,
                -4.291534423828125e-06,
                -8.780769348144531
            ],
            "type" : "VEC3"
        },
        {
            "bufferView" : 9,
            "componentType" : 5126,
            "count" : 6320,
            "type" : "VEC3"
        },
        {
            "bufferView" : 10,
            "componentType" : 5126,
            "count" : 6320,
            "type" : "VEC2"
        },
        {
            "bufferView" : 11,
            "componentType" : 5123,
            "count" : 8328,
            "type" : "SCALAR"
        },
        {
            "bufferView" : 12,
            "componentType" : 5126,
            "count" : 1684,
            "max" : [
                23.39864158630371,
                11.549999237060547,
                9.769242286682129
            ],
            "min" : [
                -23.40129852294922,
                -3.814697265625e-06,
                -1.7807669639587402
            ],
            "type" : "VEC3"
        },
        {
            "bufferView" : 13,
            "componentType" : 5126,
            "count" : 1684,
            "type" : "VEC3"
        },
        {
            "bufferView" : 14,
            "componentType" : 5126,
            "count" : 1684,
            "type" : "VEC2"
        },
        {
            "bufferView" : 15,
            "componentType" : 5123,
            "count" : 1980,
            "type" : "SCALAR"
        },
        {
            "bufferView" : 16,
            "componentType" : 5126,
            "count" : 88,
            "max" : [
                4.198678970336914,
                0.4499979019165039,
                9.728562355041504
            ],
            "min" : [
                -4.201321601867676,
                -2.384185791015625e-06,
                6.669231414794922
            ],
            "type" : "VEC3"
        },
        {
            "bufferView" : 17,
            "componentType" : 5126,
            "count" : 88,
            "type" : "VEC3"
        },
        {
            "bufferView" : 18,
            "componentType" : 5126,
            "count" : 88,
            "type" : "VEC2"
        },
        {
            "bufferView" : 19,
            "componentType" : 5123,
            "count" : 108,
            "type" : "SCALAR"
        },
        {
            "bufferView" : 20,
            "componentType" : 5126,
            "count" : 271,
            "max" : [
                23.09864616394043,
                12.249998092651367,
                9.46922779083252
            ],
            "min" : [
                -23.10129165649414,
                -2.86102294921875e-06,
                -8.080772399902344
            ],
            "type" : "VEC3"
        },
        {
            "bufferView" : 21,
            "componentType" : 5126,
            "count" : 271,
            "type" : "VEC3"
        },
        {
            "bufferView" : 22,
            "componentType" : 5126,
            "count" : 271,
            "type" : "VEC2"
        },
        {
            "bufferView" : 23,
            "componentType" : 5123,
            "count" : 432,
            "type" : "SCALAR"
        },
        {
            "bufferView" : 24,
            "componentType" : 5126,
            "count" : 2972,
            "max" : [
                3.684581756591797,
                4.554551124572754,
                9.204689025878906
            ],
            "min" : [
                -3.7178611755371094,
                4.256651878356934,
                6.555855751037598
            ],
            "type" : "VEC3"
        },
        {
            "bufferView" : 25,
            "componentType" : 5126,
            "count" : 2972,
            "type" : "VEC3"
        },
        {
            "bufferView" : 26,
            "componentType" : 5126,
            "count" : 2972,
            "type" : "VEC2"
        },
        {
            "bufferView" : 27,
            "componentType" : 5123,
            "count" : 4800,
            "type" : "SCALAR"
        }
    ],
    "bufferViews" : [
        {
            "buffer" : 0,
            "byteLength" : 160692,
            "byteOffset" : 0
        },
        {
            "buffer" : 0,
            "byteLength" : 160692,
            "byteOffset" : 160692
        },
        {
            "buffer" : 0,
            "byteLength" : 107128,
            "byteOffset" : 321384
        },
        {
            "buffer" : 0,
            "byteLength" : 33504,
            "byteOffset" : 428512
        },
        {
            "buffer" : 0,
            "byteLength" : 2952,
            "byteOffset" : 462016
        },
        {
            "buffer" : 0,
            "byteLength" : 2952,
            "byteOffset" : 464968
        },
        {
            "buffer" : 0,
            "byteLength" : 1968,
            "byteOffset" : 467920
        },
        {
            "buffer" : 0,
            "byteLength" : 576,
            "byteOffset" : 469888
        },
        {
            "buffer" : 0,
            "byteLength" : 75840,
            "byteOffset" : 470464
        },
        {
            "buffer" : 0,
            "byteLength" : 75840,
            "byteOffset" : 546304
        },
        {
            "buffer" : 0,
            "byteLength" : 50560,
            "byteOffset" : 622144
        },
        {
            "buffer" : 0,
            "byteLength" : 16656,
            "byteOffset" : 672704
        },
        {
            "buffer" : 0,
            "byteLength" : 20208,
            "byteOffset" : 689360
        },
        {
            "buffer" : 0,
            "byteLength" : 20208,
            "byteOffset" : 709568
        },
        {
            "buffer" : 0,
            "byteLength" : 13472,
            "byteOffset" : 729776
        },
        {
            "buffer" : 0,
            "byteLength" : 3960,
            "byteOffset" : 743248
        },
        {
            "buffer" : 0,
            "byteLength" : 1056,
            "byteOffset" : 747208
        },
        {
            "buffer" : 0,
            "byteLength" : 1056,
            "byteOffset" : 748264
        },
        {
            "buffer" : 0,
            "byteLength" : 704,
            "byteOffset" : 749320
        },
        {
            "buffer" : 0,
            "byteLength" : 216,
            "byteOffset" : 750024
        },
        {
            "buffer" : 0,
            "byteLength" : 3252,
            "byteOffset" : 750240
        },
        {
            "buffer" : 0,
            "byteLength" : 3252,
            "byteOffset" : 753492
        },
        {
            "buffer" : 0,
            "byteLength" : 2168,
            "byteOffset" : 756744
        },
        {
            "buffer" : 0,
            "byteLength" : 864,
            "byteOffset" : 758912
        },
        {
            "buffer" : 0,
            "byteLength" : 35664,
            "byteOffset" : 759776
        },
        {
            "buffer" : 0,
            "byteLength" : 35664,
            "byteOffset" : 795440
        },
        {
            "buffer" : 0,
            "byteLength" : 23776,
            "byteOffset" : 831104
        },
        {
            "buffer" : 0,
            "byteLength" : 9600,
            "byteOffset" : 854880
        }
    ],
    "buffers" : [
        {
            "byteLength" : 864480,
            "uri" : "data:application/octet-stream;base64,"
        }
    ]
}
