{
    "asset" : {
        "generator" : "Khronos glTF Blender I/O v1.8.19",
        "version" : "2.0"
    },
    "scene" : 0,
    "scenes" : [
        {
            "name" : "Scene",
            "nodes" : [
                0
            ]
        }
    ],
    "nodes" : [
        {
            "mesh" : 0,
            "name" : "\u5382\u623f68"
        }
    ],
    "materials" : [
        {
            "doubleSided" : true,
            "name" : "Mat3d66-9137234-192-72815",
            "pbrMetallicRoughness" : {
                "baseColorTexture" : {
                    "index" : 0
                },
                "metallicFactor" : 0,
                "roughnessFactor" : 0.6574802994728088
            }
        },
        {
            "doubleSided" : true,
            "name" : "Mat3d66-9137234-135-67746",
            "pbrMetallicRoughness" : {
                "baseColorTexture" : {
                    "index" : 1
                },
                "metallicFactor" : 0
            }
        },
        {
            "doubleSided" : true,
            "name" : "Mat3d66-9137234-136-40657",
            "pbrMetallicRoughness" : {
                "baseColorTexture" : {
                    "index" : 2
                },
                "metallicFactor" : 0
            }
        },
        {
            "doubleSided" : true,
            "name" : "Mat3d66-9137234-137-72415",
            "pbrMetallicRoughness" : {
                "baseColorTexture" : {
                    "index" : 3
                },
                "metallicFactor" : 0,
                "roughnessFactor" : 0.5
            }
        },
        {
            "doubleSided" : true,
            "name" : "Mat3d66-9137234-138-86923",
            "pbrMetallicRoughness" : {
                "baseColorFactor" : [
                    0.2509799897670746,
                    0.2980389893054962,
                    0.34902000427246094,
                    1
                ],
                "metallicFactor" : 0,
                "roughnessFactor" : 0.5
            }
        },
        {
            "doubleSided" : true,
            "name" : "Mat3d66-9137234-139-99232",
            "pbrMetallicRoughness" : {
                "baseColorFactor" : [
                    0.564706027507782,
                    0.7372549772262573,
                    0.8352940082550049,
                    1
                ],
                "metallicFactor" : 0,
                "roughnessFactor" : 0.5
            }
        },
        {
            "doubleSided" : true,
            "name" : "Mat3d66-9137234-140-22868",
            "pbrMetallicRoughness" : {
                "baseColorTexture" : {
                    "index" : 4
                },
                "metallicFactor" : 0,
                "roughnessFactor" : 0.5
            }
        }
    ],
    "meshes" : [
        {
            "name" : "Obj3d66-9137234-779-9",
            "primitives" : [
                {
                    "attributes" : {
                        "POSITION" : 0,
                        "NORMAL" : 1,
                        "TEXCOORD_0" : 2
                    },
                    "indices" : 3,
                    "material" : 0
                },
                {
                    "attributes" : {
                        "POSITION" : 4,
                        "NORMAL" : 5,
                        "TEXCOORD_0" : 6
                    },
                    "indices" : 7,
                    "material" : 1
                },
                {
                    "attributes" : {
                        "POSITION" : 8,
                        "NORMAL" : 9,
                        "TEXCOORD_0" : 10
                    },
                    "indices" : 11,
                    "material" : 2
                },
                {
                    "attributes" : {
                        "POSITION" : 12,
                        "NORMAL" : 13,
                        "TEXCOORD_0" : 14
                    },
                    "indices" : 15,
                    "material" : 3
                },
                {
                    "attributes" : {
                        "POSITION" : 16,
                        "NORMAL" : 17,
                        "TEXCOORD_0" : 18
                    },
                    "indices" : 19,
                    "material" : 4
                },
                {
                    "attributes" : {
                        "POSITION" : 20,
                        "NORMAL" : 21,
                        "TEXCOORD_0" : 22
                    },
                    "indices" : 23,
                    "material" : 5
                },
                {
                    "attributes" : {
                        "POSITION" : 24,
                        "NORMAL" : 25,
                        "TEXCOORD_0" : 26
                    },
                    "indices" : 27,
                    "material" : 6
                }
            ]
        }
    ],
    "textures" : [
        {
            "sampler" : 0,
            "source" : 0
        },
        {
            "sampler" : 0,
            "source" : 1
        },
        {
            "sampler" : 0,
            "source" : 2
        },
        {
            "sampler" : 0,
            "source" : 3
        },
        {
            "sampler" : 0,
            "source" : 4
        }
    ],
    "images" : [
        {
            "bufferView" : 4,
            "mimeType" : "image/jpeg",
            "name" : "3d66Model-9137234-files-15"
        },
        {
            "bufferView" : 9,
            "mimeType" : "image/jpeg",
            "name" : "3d66Model-9137234-files-42"
        },
        {
            "bufferView" : 14,
            "mimeType" : "image/jpeg",
            "name" : "3d66Model-9137234-files-2"
        },
        {
            "bufferView" : 19,
            "mimeType" : "image/jpeg",
            "name" : "3d66Model-9137234-files-3"
        },
        {
            "bufferView" : 32,
            "mimeType" : "image/jpeg",
            "name" : "3d66Model-9137234-files-20"
        }
    ],
    "accessors" : [
        {
            "bufferView" : 0,
            "componentType" : 5126,
            "count" : 9204,
            "max" : [
                70.00013732910156,
                24.850311279296875,
                40.150848388671875
            ],
            "min" : [
                -70.00018310546875,
                7.748603820800781e-06,
                -40.150848388671875
            ],
            "type" : "VEC3"
        },
        {
            "bufferView" : 1,
            "componentType" : 5126,
            "count" : 9204,
            "type" : "VEC3"
        },
        {
            "bufferView" : 2,
            "componentType" : 5126,
            "count" : 9204,
            "type" : "VEC2"
        },
        {
            "bufferView" : 3,
            "componentType" : 5123,
            "count" : 16980,
            "type" : "SCALAR"
        },
        {
            "bufferView" : 5,
            "componentType" : 5126,
            "count" : 1248,
            "max" : [
                70.20011901855469,
                3.500028610229492,
                40.051116943359375
            ],
            "min" : [
                -70.20013427734375,
                7.152557373046875e-06,
                -40.048919677734375
            ],
            "type" : "VEC3"
        },
        {
            "bufferView" : 6,
            "componentType" : 5126,
            "count" : 1248,
            "type" : "VEC3"
        },
        {
            "bufferView" : 7,
            "componentType" : 5126,
            "count" : 1248,
            "type" : "VEC2"
        },
        {
            "bufferView" : 8,
            "componentType" : 5123,
            "count" : 1872,
            "type" : "SCALAR"
        },
        {
            "bufferView" : 10,
            "componentType" : 5126,
            "count" : 192,
            "max" : [
                70.0001220703125,
                3.500028133392334,
                39.851104736328125
            ],
            "min" : [
                -70.0001220703125,
                3.5762786865234375e-07,
                -39.848907470703125
            ],
            "type" : "VEC3"
        },
        {
            "bufferView" : 11,
            "componentType" : 5126,
            "count" : 192,
            "type" : "VEC3"
        },
        {
            "bufferView" : 12,
            "componentType" : 5126,
            "count" : 192,
            "type" : "VEC2"
        },
        {
            "bufferView" : 13,
            "componentType" : 5123,
            "count" : 288,
            "type" : "SCALAR"
        },
        {
            "bufferView" : 15,
            "componentType" : 5126,
            "count" : 96,
            "max" : [
                48.05010986328125,
                7.350024700164795,
                39.839599609375
            ],
            "min" : [
                -67.35015869140625,
                0.0020056962966918945,
                -39.837432861328125
            ],
            "type" : "VEC3"
        },
        {
            "bufferView" : 16,
            "componentType" : 5126,
            "count" : 96,
            "type" : "VEC3"
        },
        {
            "bufferView" : 17,
            "componentType" : 5126,
            "count" : 96,
            "type" : "VEC2"
        },
        {
            "bufferView" : 18,
            "componentType" : 5123,
            "count" : 144,
            "type" : "SCALAR"
        },
        {
            "bufferView" : 20,
            "componentType" : 5126,
            "count" : 19440,
            "max" : [
                69.86091613769531,
                24.792329788208008,
                40.10504150390625
            ],
            "min" : [
                -69.86090087890625,
                3.5000085830688477,
                -40.10504150390625
            ],
            "type" : "VEC3"
        },
        {
            "bufferView" : 21,
            "componentType" : 5126,
            "count" : 19440,
            "type" : "VEC3"
        },
        {
            "bufferView" : 22,
            "componentType" : 5126,
            "count" : 19440,
            "type" : "VEC2"
        },
        {
            "bufferView" : 23,
            "componentType" : 5123,
            "count" : 38256,
            "type" : "SCALAR"
        },
        {
            "bufferView" : 24,
            "componentType" : 5126,
            "count" : 8472,
            "max" : [
                69.8209228515625,
                24.7523193359375,
                40.08837890625
            ],
            "min" : [
                -69.8209228515625,
                3.5000085830688477,
                -40.08837890625
            ],
            "type" : "VEC3"
        },
        {
            "bufferView" : 25,
            "componentType" : 5126,
            "count" : 8472,
            "type" : "VEC3"
        },
        {
            "bufferView" : 26,
            "componentType" : 5126,
            "count" : 8472,
            "type" : "VEC2"
        },
        {
            "bufferView" : 27,
            "componentType" : 5123,
            "count" : 15672,
            "type" : "SCALAR"
        },
        {
            "bufferView" : 28,
            "componentType" : 5126,
            "count" : 24,
            "max" : [
                69.80012512207031,
                0.10001394897699356,
                39.651123046875
            ],
            "min" : [
                -69.80014038085938,
                1.3947486877441406e-05,
                -39.64886474609375
            ],
            "type" : "VEC3"
        },
        {
            "bufferView" : 29,
            "componentType" : 5126,
            "count" : 24,
            "type" : "VEC3"
        },
        {
            "bufferView" : 30,
            "componentType" : 5126,
            "count" : 24,
            "type" : "VEC2"
        },
        {
            "bufferView" : 31,
            "componentType" : 5123,
            "count" : 36,
            "type" : "SCALAR"
        }
    ],
    "bufferViews" : [
        {
            "buffer" : 0,
            "byteLength" : 110448,
            "byteOffset" : 0
        },
        {
            "buffer" : 0,
            "byteLength" : 110448,
            "byteOffset" : 110448
        },
        {
            "buffer" : 0,
            "byteLength" : 73632,
            "byteOffset" : 220896
        },
        {
            "buffer" : 0,
            "byteLength" : 33960,
            "byteOffset" : 294528
        },
        {
            "buffer" : 0,
            "byteLength" : 33665,
            "byteOffset" : 328488
        },
        {
            "buffer" : 0,
            "byteLength" : 14976,
            "byteOffset" : 362156
        },
        {
            "buffer" : 0,
            "byteLength" : 14976,
            "byteOffset" : 377132
        },
        {
            "buffer" : 0,
            "byteLength" : 9984,
            "byteOffset" : 392108
        },
        {
            "buffer" : 0,
            "byteLength" : 3744,
            "byteOffset" : 402092
        },
        {
            "buffer" : 0,
            "byteLength" : 81730,
            "byteOffset" : 405836
        },
        {
            "buffer" : 0,
            "byteLength" : 2304,
            "byteOffset" : 487568
        },
        {
            "buffer" : 0,
            "byteLength" : 2304,
            "byteOffset" : 489872
        },
        {
            "buffer" : 0,
            "byteLength" : 1536,
            "byteOffset" : 492176
        },
        {
            "buffer" : 0,
            "byteLength" : 576,
            "byteOffset" : 493712
        },
        {
            "buffer" : 0,
            "byteLength" : 83525,
            "byteOffset" : 494288
        },
        {
            "buffer" : 0,
            "byteLength" : 1152,
            "byteOffset" : 577816
        },
        {
            "buffer" : 0,
            "byteLength" : 1152,
            "byteOffset" : 578968
        },
        {
            "buffer" : 0,
            "byteLength" : 768,
            "byteOffset" : 580120
        },
        {
            "buffer" : 0,
            "byteLength" : 288,
            "byteOffset" : 580888
        },
        {
            "buffer" : 0,
            "byteLength" : 50060,
            "byteOffset" : 581176
        },
        {
            "buffer" : 0,
            "byteLength" : 233280,
            "byteOffset" : 631236
        },
        {
            "buffer" : 0,
            "byteLength" : 233280,
            "byteOffset" : 864516
        },
        {
            "buffer" : 0,
            "byteLength" : 155520,
            "byteOffset" : 1097796
        },
        {
            "buffer" : 0,
            "byteLength" : 76512,
            "byteOffset" : 1253316
        },
        {
            "buffer" : 0,
            "byteLength" : 101664,
            "byteOffset" : 1329828
        },
        {
            "buffer" : 0,
            "byteLength" : 101664,
            "byteOffset" : 1431492
        },
        {
            "buffer" : 0,
            "byteLength" : 67776,
            "byteOffset" : 1533156
        },
        {
            "buffer" : 0,
            "byteLength" : 31344,
            "byteOffset" : 1600932
        },
        {
            "buffer" : 0,
            "byteLength" : 288,
            "byteOffset" : 1632276
        },
        {
            "buffer" : 0,
            "byteLength" : 288,
            "byteOffset" : 1632564
        },
        {
            "buffer" : 0,
            "byteLength" : 192,
            "byteOffset" : 1632852
        },
        {
            "buffer" : 0,
            "byteLength" : 72,
            "byteOffset" : 1633044
        },
        {
            "buffer" : 0,
            "byteLength" : 12058,
            "byteOffset" : 1633116
        }
    ],
    "samplers" : [
        {
            "magFilter" : 9729,
            "minFilter" : 9987
        }
    ],
    "buffers" : [
        {
            "byteLength" : 1645176,
            "uri" : "data:application/octet-stream;base64,"
        }
    ]
}
