{
    "asset" : {
        "generator" : "Khronos glTF Blender I/O v1.8.19",
        "version" : "2.0"
    },
    "scene" : 0,
    "scenes" : [
        {
            "name" : "Scene",
            "nodes" : [
                0
            ]
        }
    ],
    "nodes" : [
        {
            "mesh" : 0,
            "name" : "\u6444\u50cf\u593437"
        }
    ],
    "materials" : [
        {
            "alphaMode" : "BLEND",
            "doubleSided" : true,
            "name" : "www.3dfox.cn-\u5ba4\u5916\u76d1\u63a73-0023",
            "pbrMetallicRoughness" : {
                "baseColorFactor" : [
                    0,
                    0,
                    0,
                    0.9685039520263672
                ],
                "metallicFactor" : 0,
                "roughnessFactor" : 0.5
            }
        },
        {
            "doubleSided" : true,
            "name" : "dwqdwqd.004",
            "pbrMetallicRoughness" : {
                "baseColorFactor" : [
                    0.8431370258331299,
                    0.8431370258331299,
                    0.8431370258331299,
                    1
                ],
                "metallicFactor" : 0,
                "roughnessFactor" : 0.5
            }
        },
        {
            "doubleSided" : true,
            "name" : "www.3dfox.cn-\u5ba4\u5916\u76d1\u63a73-0025",
            "pbrMetallicRoughness" : {
                "baseColorFactor" : [
                    0.5879999995231628,
                    0.5879999995231628,
                    0.5879999995231628,
                    1
                ],
                "metallicFactor" : 0,
                "roughnessFactor" : 0.5
            }
        },
        {
            "doubleSided" : true,
            "name" : "www.3dfox.cn-\u5ba4\u5916\u76d1\u63a73-0026",
            "pbrMetallicRoughness" : {
                "baseColorFactor" : [
                    0.24313700199127197,
                    0.24313700199127197,
                    0.24313700199127197,
                    1
                ],
                "roughnessFactor" : 0.5
            }
        },
        {
            "doubleSided" : true,
            "name" : "www.3dfox.cn-\u5ba4\u5916\u76d1\u63a73-0028",
            "pbrMetallicRoughness" : {
                "baseColorFactor" : [
                    0.08627499639987946,
                    0.08627499639987946,
                    0.08627499639987946,
                    1
                ],
                "metallicFactor" : 0,
                "roughnessFactor" : 0.5
            }
        }
    ],
    "meshes" : [
        {
            "name" : "Obj3d66-4638355-9-591",
            "primitives" : [
                {
                    "attributes" : {
                        "POSITION" : 0,
                        "NORMAL" : 1,
                        "TEXCOORD_0" : 2
                    },
                    "indices" : 3,
                    "material" : 0
                },
                {
                    "attributes" : {
                        "POSITION" : 4,
                        "NORMAL" : 5,
                        "TEXCOORD_0" : 6
                    },
                    "indices" : 7,
                    "material" : 1
                },
                {
                    "attributes" : {
                        "POSITION" : 8,
                        "NORMAL" : 9,
                        "TEXCOORD_0" : 10
                    },
                    "indices" : 11,
                    "material" : 2
                },
                {
                    "attributes" : {
                        "POSITION" : 12,
                        "NORMAL" : 13,
                        "TEXCOORD_0" : 14
                    },
                    "indices" : 15,
                    "material" : 3
                },
                {
                    "attributes" : {
                        "POSITION" : 16,
                        "NORMAL" : 17,
                        "TEXCOORD_0" : 18
                    },
                    "indices" : 3,
                    "material" : 4
                }
            ]
        }
    ],
    "accessors" : [
        {
            "bufferView" : 0,
            "componentType" : 5126,
            "count" : 592,
            "max" : [
                0.19852998852729797,
                1.4607410430908203,
                0.22188085317611694
            ],
            "min" : [
                -0.2593037486076355,
                1.2456721067428589,
                -0.04310161620378494
            ],
            "type" : "VEC3"
        },
        {
            "bufferView" : 1,
            "componentType" : 5126,
            "count" : 592,
            "type" : "VEC3"
        },
        {
            "bufferView" : 2,
            "componentType" : 5126,
            "count" : 592,
            "type" : "VEC2"
        },
        {
            "bufferView" : 3,
            "componentType" : 5123,
            "count" : 2880,
            "type" : "SCALAR"
        },
        {
            "bufferView" : 4,
            "componentType" : 5126,
            "count" : 30618,
            "max" : [
                0.23484867811203003,
                1.6198077201843262,
                0.25826019048690796
            ],
            "min" : [
                -0.29561710357666016,
                1.2861891984939575,
                -0.0790756419301033
            ],
            "type" : "VEC3"
        },
        {
            "bufferView" : 5,
            "componentType" : 5126,
            "count" : 30618,
            "type" : "VEC3"
        },
        {
            "bufferView" : 6,
            "componentType" : 5126,
            "count" : 30618,
            "type" : "VEC2"
        },
        {
            "bufferView" : 7,
            "componentType" : 5123,
            "count" : 167328,
            "type" : "SCALAR"
        },
        {
            "bufferView" : 8,
            "componentType" : 5126,
            "count" : 138,
            "max" : [
                0.06623047590255737,
                1.7292832136154175,
                0.06274097412824631
            ],
            "min" : [
                -0.04598069190979004,
                0,
                -0.049376554787158966
            ],
            "type" : "VEC3"
        },
        {
            "bufferView" : 9,
            "componentType" : 5126,
            "count" : 138,
            "type" : "VEC3"
        },
        {
            "bufferView" : 10,
            "componentType" : 5126,
            "count" : 138,
            "type" : "VEC2"
        },
        {
            "bufferView" : 11,
            "componentType" : 5123,
            "count" : 372,
            "type" : "SCALAR"
        },
        {
            "bufferView" : 12,
            "componentType" : 5126,
            "count" : 3856,
            "max" : [
                0.06623047590255737,
                1.6105802059173584,
                0.06274097412824631
            ],
            "min" : [
                -0.04727828502655029,
                1.3547362089157104,
                -0.05096275359392166
            ],
            "type" : "VEC3"
        },
        {
            "bufferView" : 13,
            "componentType" : 5126,
            "count" : 3856,
            "type" : "VEC3"
        },
        {
            "bufferView" : 14,
            "componentType" : 5126,
            "count" : 3856,
            "type" : "VEC2"
        },
        {
            "bufferView" : 15,
            "componentType" : 5123,
            "count" : 14424,
            "type" : "SCALAR"
        },
        {
            "bufferView" : 16,
            "componentType" : 5126,
            "count" : 592,
            "max" : [
                0.19624406099319458,
                1.4606497287750244,
                0.21959561109542847
            ],
            "min" : [
                -0.25700879096984863,
                1.2478758096694946,
                -0.04080755263566971
            ],
            "type" : "VEC3"
        },
        {
            "bufferView" : 17,
            "componentType" : 5126,
            "count" : 592,
            "type" : "VEC3"
        },
        {
            "bufferView" : 18,
            "componentType" : 5126,
            "count" : 592,
            "type" : "VEC2"
        }
    ],
    "bufferViews" : [
        {
            "buffer" : 0,
            "byteLength" : 7104,
            "byteOffset" : 0
        },
        {
            "buffer" : 0,
            "byteLength" : 7104,
            "byteOffset" : 7104
        },
        {
            "buffer" : 0,
            "byteLength" : 4736,
            "byteOffset" : 14208
        },
        {
            "buffer" : 0,
            "byteLength" : 5760,
            "byteOffset" : 18944
        },
        {
            "buffer" : 0,
            "byteLength" : 367416,
            "byteOffset" : 24704
        },
        {
            "buffer" : 0,
            "byteLength" : 367416,
            "byteOffset" : 392120
        },
        {
            "buffer" : 0,
            "byteLength" : 244944,
            "byteOffset" : 759536
        },
        {
            "buffer" : 0,
            "byteLength" : 334656,
            "byteOffset" : 1004480
        },
        {
            "buffer" : 0,
            "byteLength" : 1656,
            "byteOffset" : 1339136
        },
        {
            "buffer" : 0,
            "byteLength" : 1656,
            "byteOffset" : 1340792
        },
        {
            "buffer" : 0,
            "byteLength" : 1104,
            "byteOffset" : 1342448
        },
        {
            "buffer" : 0,
            "byteLength" : 744,
            "byteOffset" : 1343552
        },
        {
            "buffer" : 0,
            "byteLength" : 46272,
            "byteOffset" : 1344296
        },
        {
            "buffer" : 0,
            "byteLength" : 46272,
            "byteOffset" : 1390568
        },
        {
            "buffer" : 0,
            "byteLength" : 30848,
            "byteOffset" : 1436840
        },
        {
            "buffer" : 0,
            "byteLength" : 28848,
            "byteOffset" : 1467688
        },
        {
            "buffer" : 0,
            "byteLength" : 7104,
            "byteOffset" : 1496536
        },
        {
            "buffer" : 0,
            "byteLength" : 7104,
            "byteOffset" : 1503640
        },
        {
            "buffer" : 0,
            "byteLength" : 4736,
            "byteOffset" : 1510744
        }
    ],
    "buffers" : [
        {
            "byteLength" : 1515480,
            "uri" : "data:application/octet-stream;base64,"
        }
    ]
}
