{
    "asset" : {
        "generator" : "Khronos glTF Blender I/O v1.8.19",
        "version" : "2.0"
    },
    "scene" : 0,
    "scenes" : [
        {
            "name" : "Scene",
            "nodes" : [
                0
            ]
        }
    ],
    "nodes" : [
        {
            "mesh" : 0,
            "name" : "\u52a8\u7269_\u732a"
        }
    ],
    "materials" : [
        {
            "doubleSided" : true,
            "name" : "Mat3d66-792798-1-1497",
            "pbrMetallicRoughness" : {
                "baseColorTexture" : {
                    "index" : 0
                },
                "metallicFactor" : 0,
                "roughnessFactor" : 0.8700787425041199
            }
        }
    ],
    "meshes" : [
        {
            "name" : "Obj3d66-792798-1-523",
            "primitives" : [
                {
                    "attributes" : {
                        "POSITION" : 0,
                        "NORMAL" : 1,
                        "TEXCOORD_0" : 2
                    },
                    "indices" : 3,
                    "material" : 0
                }
            ]
        }
    ],
    "textures" : [
        {
            "sampler" : 0,
            "source" : 0
        }
    ],
    "images" : [
        {
            "bufferView" : 4,
            "mimeType" : "image/jpeg",
            "name" : "3d66Model-792798-files-1"
        }
    ],
    "accessors" : [
        {
            "bufferView" : 0,
            "componentType" : 5126,
            "count" : 15209,
            "max" : [
                0.19195443391799927,
                0.7143905162811279,
                0.624549388885498
            ],
            "min" : [
                -0.19195443391799927,
                9.89530235528946e-09,
                -0.624549388885498
            ],
            "type" : "VEC3"
        },
        {
            "bufferView" : 1,
            "componentType" : 5126,
            "count" : 15209,
            "type" : "VEC3"
        },
        {
            "bufferView" : 2,
            "componentType" : 5126,
            "count" : 15209,
            "type" : "VEC2"
        },
        {
            "bufferView" : 3,
            "componentType" : 5123,
            "count" : 82908,
            "type" : "SCALAR"
        }
    ],
    "bufferViews" : [
        {
            "buffer" : 0,
            "byteLength" : 182508,
            "byteOffset" : 0
        },
        {
            "buffer" : 0,
            "byteLength" : 182508,
            "byteOffset" : 182508
        },
        {
            "buffer" : 0,
            "byteLength" : 121672,
            "byteOffset" : 365016
        },
        {
            "buffer" : 0,
            "byteLength" : 165816,
            "byteOffset" : 486688
        },
        {
            "buffer" : 0,
            "byteLength" : 79700,
            "byteOffset" : 652504
        }
    ],
    "samplers" : [
        {
            "magFilter" : 9729,
            "minFilter" : 9987
        }
    ],
    "buffers" : [
        {
            "byteLength" : 732204,
            "uri" : "data:application/octet-stream;base64,"
        }
    ]
}
