{
  "accessors": [
    {
      "bufferView": 2,
      "componentType": 5126,
      "count": 760,
      "max": [
        1.00746488571167,
        4.7402191162109375,
        -0.3179306387901306
      ],
      "min": [
        -1.00746488571167,
        1.6573399305343628,
        -8.546394348144531
      ],
      "type": "VEC3"
    },
    {
      "bufferView": 2,
      "byteOffset": 9120,
      "componentType": 5126,
      "count": 760,
      "max": [
        1.0,
        1.0,
        1.0
      ],
      "min": [
        -1.0,
        -1.0,
        -1.0
      ],
      "type": "VEC3"
    },
    {
      "bufferView": 1,
      "componentType": 5126,
      "count": 760,
      "max": [
        1.0,
        1.0
      ],
      "min": [
        0.0,
        0.0
      ],
      "type": "VEC2"
    },
    {
      "bufferView": 0,
      "componentType": 5125,
      "count": 2028,
      "type": "SCALAR"
    },
    {
      "bufferView": 2,
      "byteOffset": 18240,
      "componentType": 5126,
      "count": 880,
      "max": [
        0.8052222728729248,
        4.522669792175293,
        -8.3131685256958
      ],
      "min": [
        -0.782755434513092,
        1.905335545539856,
        -8.424392700195313
      ],
      "type": "VEC3"
    },
    {
      "bufferView": 2,
      "byteOffset": 28800,
      "componentType": 5126,
      "count": 880,
      "max": [
        0.9925404787063599,
        0.9925395846366882,
        1.0
      ],
      "min": [
        -0.9925404787063599,
        -0.9925405383110046,
        -0.5165903568267822
      ],
      "type": "VEC3"
    },
    {
      "bufferView": 1,
      "byteOffset": 6080,
      "componentType": 5126,
      "count": 880,
      "max": [
        1.0000001192092896,
        1.0
      ],
      "min": [
        0.0,
        0.5000000596046448
      ],
      "type": "VEC2"
    },
    {
      "bufferView": 0,
      "byteOffset": 8112,
      "componentType": 5125,
      "count": 4560,
      "type": "SCALAR"
    },
    {
      "bufferView": 2,
      "byteOffset": 39360,
      "componentType": 5126,
      "count": 9107,
      "max": [
        6.674394130706787,
        10.978327751159668,
        2.343960762023926
      ],
      "min": [
        -3.4963550567626953,
        3.993364095687866,
        -3.457122802734375
      ],
      "type": "VEC3"
    },
    {
      "bufferView": 2,
      "byteOffset": 148644,
      "componentType": 5126,
      "count": 9107,
      "max": [
        0.999978244304657,
        1.0,
        0.9998847246170044
      ],
      "min": [
        -0.9999488592147827,
        -1.0,
        -0.9999973773956299
      ],
      "type": "VEC3"
    },
    {
      "bufferView": 1,
      "byteOffset": 13120,
      "componentType": 5126,
      "count": 9107,
      "max": [
        1.0,
        1.0
      ],
      "min": [
        0.0,
        0.0
      ],
      "type": "VEC2"
    },
    {
      "bufferView": 0,
      "byteOffset": 26352,
      "componentType": 5125,
      "count": 45114,
      "type": "SCALAR"
    },
    {
      "bufferView": 2,
      "byteOffset": 257928,
      "componentType": 5126,
      "count": 715,
      "max": [
        5.180791854858398,
        7.772325038909912,
        1.3088691234588623
      ],
      "min": [
        4.6147050857543945,
        5.767268657684326,
        -0.6335967183113098
      ],
      "type": "VEC3"
    },
    {
      "bufferView": 2,
      "byteOffset": 266508,
      "componentType": 5126,
      "count": 715,
      "max": [
        0.9993012547492981,
        0.9500806927680969,
        0.9992709755897522
      ],
      "min": [
        -0.24635940790176392,
        -0.9500797390937805,
        -0.9624840021133423
      ],
      "type": "VEC3"
    },
    {
      "bufferView": 1,
      "byteOffset": 85976,
      "componentType": 5126,
      "count": 715,
      "max": [
        0.9391896724700928,
        0.9954701662063599
      ],
      "min": [
        0.553321361541748,
        0.7534611821174622
      ],
      "type": "VEC2"
    },
    {
      "bufferView": 1,
      "byteOffset": 91696,
      "componentType": 5126,
      "count": 715,
      "max": [
        0.9391896724700928,
        0.9954701662063599
      ],
      "min": [
        0.553321361541748,
        0.7534611821174622
      ],
      "type": "VEC2"
    },
    {
      "bufferView": 1,
      "byteOffset": 97416,
      "componentType": 5126,
      "count": 715,
      "max": [
        0.9391896724700928,
        0.9954701662063599
      ],
      "min": [
        0.553321361541748,
        0.7534611821174622
      ],
      "type": "VEC2"
    },
    {
      "bufferView": 0,
      "byteOffset": 206808,
      "componentType": 5125,
      "count": 3648,
      "type": "SCALAR"
    },
    {
      "bufferView": 2,
      "byteOffset": 275088,
      "componentType": 5126,
      "count": 880,
      "max": [
        5.668202877044678,
        6.89963436126709,
        1.9828242063522339
      ],
      "min": [
        0.6022579669952393,
        4.335430145263672,
        -1.1577495336532593
      ],
      "type": "VEC3"
    },
    {
      "bufferView": 2,
      "byteOffset": 285648,
      "componentType": 5126,
      "count": 880,
      "max": [
        0.9999916553497314,
        0.9925398826599121,
        0.9911800622940063
      ],
      "min": [
        -0.9911801815032959,
        -1.0,
        -0.9973973035812378
      ],
      "type": "VEC3"
    },
    {
      "bufferView": 1,
      "byteOffset": 103136,
      "componentType": 5126,
      "count": 880,
      "max": [
        1.0000001192092896,
        1.0
      ],
      "min": [
        0.0,
        0.5000000596046448
      ],
      "type": "VEC2"
    },
    {
      "bufferView": 0,
      "byteOffset": 221400,
      "componentType": 5125,
      "count": 4560,
      "type": "SCALAR"
    },
    {
      "bufferView": 2,
      "byteOffset": 296208,
      "componentType": 5126,
      "count": 32,
      "max": [
        -2.9078993797302246,
        11.031152725219727,
        -2.315742015838623
      ],
      "min": [
        -3.143028736114502,
        10.977938652038574,
        -2.5508716106414795
      ],
      "type": "VEC3"
    },
    {
      "bufferView": 2,
      "byteOffset": 296592,
      "componentType": 5126,
      "count": 32,
      "max": [
        0.7196504473686218,
        1.0,
        0.7161074280738831
      ],
      "min": [
        -0.7151267528533936,
        0.5832303166389465,
        -0.7196271419525146
      ],
      "type": "VEC3"
    },
    {
      "bufferView": 1,
      "byteOffset": 110176,
      "componentType": 5126,
      "count": 32,
      "max": [
        0.6856241822242737,
        0.5031387209892273
      ],
      "min": [
        0.31249919533729553,
        0.24686124920845032
      ],
      "type": "VEC2"
    },
    {
      "bufferView": 0,
      "byteOffset": 239640,
      "componentType": 5125,
      "count": 42,
      "type": "SCALAR"
    },
    {
      "bufferView": 2,
      "byteOffset": 296976,
      "componentType": 5126,
      "count": 24,
      "max": [
        -2.541919231414795,
        7.033138275146484,
        -2.2421746253967285
      ],
      "min": [
        -2.9860663414001465,
        6.921950340270996,
        -2.460871696472168
      ],
      "type": "VEC3"
    },
    {
      "bufferView": 2,
      "byteOffset": 297264,
      "componentType": 5126,
      "count": 24,
      "max": [
        0.9659257531166077,
        1.0,
        0.965925931930542
      ],
      "min": [
        -0.9659256339073181,
        -1.0,
        -0.9659259915351868
      ],
      "type": "VEC3"
    },
    {
      "bufferView": 1,
      "byteOffset": 110432,
      "componentType": 5126,
      "count": 24,
      "max": [
        0.875,
        1.0
      ],
      "min": [
        0.125,
        0.0
      ],
      "type": "VEC2"
    },
    {
      "bufferView": 0,
      "byteOffset": 239808,
      "componentType": 5125,
      "count": 36,
      "type": "SCALAR"
    }
  ],
  "asset": {
    "extras": {
      "author": "Bryan (https://sketchfab.com/BryanSanchinolo)",
      "license": "CC-BY-4.0 (http://creativecommons.org/licenses/by/4.0/)",
      "source": "https://sketchfab.com/3d-models/security-camera-7da2489681d749fda57ffdf1db9f0419",
      "title": "Security Camera"
    },
    "generator": "Sketchfab-12.65.0",
    "version": "2.0"
  },
  "bufferViews": [
    {
      "buffer": 0,
      "byteLength": 239952,
      "name": "floatBufferViews",
      "target": 34963
    },
    {
      "buffer": 0,
      "byteLength": 110624,
      "byteOffset": 239952,
      "byteStride": 8,
      "name": "floatBufferViews",
      "target": 34962
    },
    {
      "buffer": 0,
      "byteLength": 297552,
      "byteOffset": 350576,
      "byteStride": 12,
      "name": "floatBufferViews",
      "target": 34962
    }
  ],
  "buffers": [
    {
      "byteLength": 648128,
      "uri": "scene.bin"
    }
  ],
  "images": [
    {
      "uri": "textures/Team3_Sanchez_SecuruityCameraLens_baseColor.png"
    }
  ],
  "materials": [
    {
      "doubleSided": true,
      "name": "Team3_Sanchez_SecurityCameraBase",
      "pbrMetallicRoughness": {
        "metallicFactor": 0.5443978658536586,
        "roughnessFactor": 0.2726753048780487
      }
    },
    {
      "doubleSided": true,
      "name": "Team3_Sanchez_SecurityCameraBolt",
      "pbrMetallicRoughness": {
        "baseColorFactor": [
          0.671,
          0.671,
          0.671,
          1.0
        ],
        "roughnessFactor": 0.0
      }
    },
    {
      "alphaMode": "BLEND",
      "doubleSided": true,
      "name": "Team3_Sanchez_SecuruityCameraLens",
      "pbrMetallicRoughness": {
        "baseColorTexture": {
          "index": 0
        },
        "metallicFactor": 0.13586128048780488,
        "roughnessFactor": 0.0
      }
    },
    {
      "doubleSided": true,
      "emissiveFactor": [
        1.0,
        0.0,
        0.0
      ],
      "name": "Team3_Sanchez_SecuirtyCameraOnButton",
      "pbrMetallicRoughness": {
        "baseColorFactor": [
          0.5,
          0.5,
          0.5,
          1.0
        ],
        "roughnessFactor": 0.0
      }
    },
    {
      "doubleSided": true,
      "name": "lambert1",
      "pbrMetallicRoughness": {
        "baseColorFactor": [
          0.5,
          0.5,
          0.5,
          1.0
        ],
        "metallicFactor": 0.0,
        "roughnessFactor": 0.6
      }
    }
  ],
  "meshes": [
    {
      "name": "SecurityCameraBase_Team3_Sanchez_SecurityCameraBase_0",
      "primitives": [
        {
          "attributes": {
            "NORMAL": 1,
            "POSITION": 0,
            "TEXCOORD_0": 2
          },
          "indices": 3,
          "material": 0,
          "mode": 4
        }
      ]
    },
    {
      "name": "SecurityCameraBase_Team3_Sanchez_SecurityCameraBolt_0",
      "primitives": [
        {
          "attributes": {
            "NORMAL": 5,
            "POSITION": 4,
            "TEXCOORD_0": 6
          },
          "indices": 7,
          "material": 1,
          "mode": 4
        }
      ]
    },
    {
      "name": "SecurityCamera_Team3_Sanchez_SecurityCameraBase_0",
      "primitives": [
        {
          "attributes": {
            "NORMAL": 9,
            "POSITION": 8,
            "TEXCOORD_0": 10
          },
          "indices": 11,
          "material": 0,
          "mode": 4
        }
      ]
    },
    {
      "name": "SecurityCamera_Team3_Sanchez_SecuruityCameraLens_0",
      "primitives": [
        {
          "attributes": {
            "NORMAL": 13,
            "POSITION": 12,
            "TEXCOORD_0": 14,
            "TEXCOORD_1": 15,
            "TEXCOORD_2": 16
          },
          "indices": 17,
          "material": 2,
          "mode": 4
        }
      ]
    },
    {
      "name": "SecurityCamera_Team3_Sanchez_SecurityCameraBolt_0",
      "primitives": [
        {
          "attributes": {
            "NORMAL": 19,
            "POSITION": 18,
            "TEXCOORD_0": 20
          },
          "indices": 21,
          "material": 1,
          "mode": 4
        }
      ]
    },
    {
      "name": "SecurityCamera_Team3_Sanchez_SecuirtyCameraOnButton_0",
      "primitives": [
        {
          "attributes": {
            "NORMAL": 23,
            "POSITION": 22,
            "TEXCOORD_0": 24
          },
          "indices": 25,
          "material": 3,
          "mode": 4
        }
      ]
    },
    {
      "name": "SecurityCamera_lambert1_0",
      "primitives": [
        {
          "attributes": {
            "NORMAL": 27,
            "POSITION": 26,
            "TEXCOORD_0": 28
          },
          "indices": 29,
          "material": 4,
          "mode": 4
        }
      ]
    }
  ],
  "nodes": [
    {
      "children": [
        1
      ],
      "matrix": [
        1.0,
        0.0,
        0.0,
        0.0,
        0.0,
        2.220446049250313e-16,
        -1.0,
        0.0,
        0.0,
        1.0,
        2.220446049250313e-16,
        0.0,
        0.0,
        0.0,
        0.0,
        1.0
      ],
      "name": "Sketchfab_model"
    },
    {
      "children": [
        2
      ],
      "matrix": [
        1.0,
        0.0,
        0.0,
        0.0,
        0.0,
        0.0,
        1.0,
        0.0,
        0.0,
        -1.0,
        0.0,
        0.0,
        0.0,
        0.0,
        0.0,
        1.0
      ],
      "name": "55bd19278617417cbd8b64192054a005.fbx"
    },
    {
      "children": [
        3,
        6
      ],
      "name": "RootNode"
    },
    {
      "children": [
        4,
        5
      ],
      "name": "SecurityCameraBase"
    },
    {
      "mesh": 0,
      "name": "SecurityCameraBase_Team3_Sanchez_SecurityCameraBase_0"
    },
    {
      "mesh": 1,
      "name": "SecurityCameraBase_Team3_Sanchez_SecurityCameraBolt_0"
    },
    {
      "children": [
        7,
        8,
        9,
        10,
        11
      ],
      "name": "SecurityCamera"
    },
    {
      "mesh": 2,
      "name": "SecurityCamera_Team3_Sanchez_SecurityCameraBase_0"
    },
    {
      "mesh": 3,
      "name": "SecurityCamera_Team3_Sanchez_SecuruityCameraLens_0"
    },
    {
      "mesh": 4,
      "name": "SecurityCamera_Team3_Sanchez_SecurityCameraBolt_0"
    },
    {
      "mesh": 5,
      "name": "SecurityCamera_Team3_Sanchez_SecuirtyCameraOnButton_0"
    },
    {
      "mesh": 6,
      "name": "SecurityCamera_lambert1_0"
    }
  ],
  "samplers": [
    {
      "magFilter": 9729,
      "minFilter": 9987,
      "wrapS": 10497,
      "wrapT": 10497
    }
  ],
  "scene": 0,
  "scenes": [
    {
      "name": "Sketchfab_Scene",
      "nodes": [
        0
      ]
    }
  ],
  "textures": [
    {
      "sampler": 0,
      "source": 0
    }
  ]
}
