{
  "accessors": [
    {
      "bufferView": 2,
      "componentType": 5126,
      "count": 2986,
      "max": [
        3.6977810859680176,
        16.680742263793945,
        14.22301197052002
      ],
      "min": [
        -3.6977810859680176,
        -13.009381294250488,
        -0.08571500331163406
      ],
      "type": "VEC3"
    },
    {
      "bufferView": 2,
      "byteOffset": 35832,
      "componentType": 5126,
      "count": 2986,
      "max": [
        0.9999834895133972,
        0.9999996423721313,
        0.9999978542327881
      ],
      "min": [
        -0.9999834895133972,
        -0.9999451041221619,
        -1.0
      ],
      "type": "VEC3"
    },
    {
      "bufferView": 3,
      "componentType": 5126,
      "count": 2986,
      "max": [
        0.9999707341194153,
        0.9961277842521667,
        0.9998573660850525,
        1.0
      ],
      "min": [
        -1.0,
        -0.9955054521560669,
        -0.9999810457229614,
        -1.0
      ],
      "type": "VEC4"
    },
    {
      "bufferView": 1,
      "componentType": 5126,
      "count": 2986,
      "max": [
        0.9954779744148254,
        0.9834129810333252
      ],
      "min": [
        0.005216999910771847,
        0.0255730003118515
      ],
      "type": "VEC2"
    },
    {
      "bufferView": 0,
      "componentType": 5125,
      "count": 14694,
      "type": "SCALAR"
    }
  ],
  "asset": {
    "extras": {
      "author": "Josué Boisvert (https://sketchfab.com/JosueBoisvert)",
      "license": "CC-BY-4.0 (http://creativecommons.org/licenses/by/4.0/)",
      "source": "https://sketchfab.com/3d-models/cow-99d333e3b4e4470a8d7d38436489c001",
      "title": "Cow"
    },
    "generator": "Sketchfab-12.67.0",
    "version": "2.0"
  },
  "bufferViews": [
    {
      "buffer": 0,
      "byteLength": 58776,
      "name": "floatBufferViews",
      "target": 34963
    },
    {
      "buffer": 0,
      "byteLength": 23888,
      "byteOffset": 58776,
      "byteStride": 8,
      "name": "floatBufferViews",
      "target": 34962
    },
    {
      "buffer": 0,
      "byteLength": 71664,
      "byteOffset": 82664,
      "byteStride": 12,
      "name": "floatBufferViews",
      "target": 34962
    },
    {
      "buffer": 0,
      "byteLength": 47776,
      "byteOffset": 154328,
      "byteStride": 16,
      "name": "floatBufferViews",
      "target": 34962
    }
  ],
  "buffers": [
    {
      "byteLength": 202104,
      "uri": "scene.bin"
    }
  ],
  "images": [
    {
      "uri": "textures/tornado_cow_material_baseColor.png"
    },
    {
      "uri": "textures/tornado_cow_material_metallicRoughness.png"
    },
    {
      "uri": "textures/tornado_cow_material_normal.png"
    }
  ],
  "materials": [
    {
      "name": "tornado_cow_material",
      "normalTexture": {
        "index": 2,
        "scale": 0.6996455585989422
      },
      "pbrMetallicRoughness": {
        "baseColorTexture": {
          "index": 0
        },
        "metallicRoughnessTexture": {
          "index": 1
        }
      }
    }
  ],
  "meshes": [
    {
      "name": "Object_0",
      "primitives": [
        {
          "attributes": {
            "NORMAL": 1,
            "POSITION": 0,
            "TANGENT": 2,
            "TEXCOORD_0": 3
          },
          "indices": 4,
          "material": 0,
          "mode": 4
        }
      ]
    }
  ],
  "nodes": [
    {
      "children": [
        1
      ],
      "matrix": [
        1.0,
        0.0,
        0.0,
        0.0,
        0.0,
        2.220446049250313e-16,
        -1.0,
        0.0,
        0.0,
        1.0,
        2.220446049250313e-16,
        0.0,
        0.0,
        0.0,
        0.0,
        1.0
      ],
      "name": "Sketchfab_model"
    },
    {
      "children": [
        2
      ],
      "name": "cow.obj.cleaner"
    },
    {
      "mesh": 0,
      "name": "Object_2"
    }
  ],
  "samplers": [
    {
      "magFilter": 9729,
      "minFilter": 9987,
      "wrapS": 10497,
      "wrapT": 10497
    }
  ],
  "scene": 0,
  "scenes": [
    {
      "name": "Sketchfab_Scene",
      "nodes": [
        0
      ]
    }
  ],
  "textures": [
    {
      "sampler": 0,
      "source": 0
    },
    {
      "sampler": 0,
      "source": 1
    },
    {
      "sampler": 0,
      "source": 2
    }
  ]
}
