{
    "asset" : {
        "generator" : "Khronos glTF Blender I/O v1.8.19",
        "version" : "2.0"
    },
    "scene" : 0,
    "scenes" : [
        {
            "name" : "Scene",
            "nodes" : [
                0
            ]
        }
    ],
    "nodes" : [
        {
            "mesh" : 0,
            "name" : "\u6444\u50cf\u593435"
        }
    ],
    "materials" : [
        {
            "doubleSided" : true,
            "name" : "www.3dfox.cn-\u5ba4\u5916\u76d1\u63a71-0021",
            "pbrMetallicRoughness" : {
                "baseColorFactor" : [
                    0.24313700199127197,
                    0.24313700199127197,
                    0.24313700199127197,
                    1
                ],
                "metallicFactor" : 0,
                "roughnessFactor" : 0.5
            }
        },
        {
            "doubleSided" : true,
            "emissiveFactor" : [
                0.19215700030326843,
                0.05098000168800354,
                0.05098000168800354
            ],
            "name" : "\u81ea\u53d1\u5149",
            "pbrMetallicRoughness" : {
                "baseColorFactor" : [
                    0,
                    0,
                    0,
                    1
                ],
                "metallicFactor" : 0,
                "roughnessFactor" : 0.5
            }
        },
        {
            "alphaMode" : "BLEND",
            "doubleSided" : true,
            "name" : "www.3dfox.cn-\u5ba4\u5916\u76d1\u63a71-0023",
            "pbrMetallicRoughness" : {
                "baseColorFactor" : [
                    0,
                    0,
                    0,
                    0.8425197005271912
                ],
                "metallicFactor" : 0,
                "roughnessFactor" : 0.5
            }
        },
        {
            "doubleSided" : true,
            "name" : "dwqdwqd.002",
            "pbrMetallicRoughness" : {
                "baseColorFactor" : [
                    0.8431370258331299,
                    0.8431370258331299,
                    0.8431370258331299,
                    1
                ],
                "metallicFactor" : 0,
                "roughnessFactor" : 0.5
            }
        },
        {
            "doubleSided" : true,
            "name" : "www.3dfox.cn-\u5ba4\u5916\u76d1\u63a71-0025",
            "pbrMetallicRoughness" : {
                "baseColorFactor" : [
                    0.5879999995231628,
                    0.5879999995231628,
                    0.5879999995231628,
                    1
                ],
                "metallicFactor" : 0,
                "roughnessFactor" : 0.5
            }
        },
        {
            "doubleSided" : true,
            "name" : "www.3dfox.cn-\u5ba4\u5916\u76d1\u63a71-0026",
            "pbrMetallicRoughness" : {
                "baseColorFactor" : [
                    0.24313700199127197,
                    0.24313700199127197,
                    0.24313700199127197,
                    1
                ],
                "roughnessFactor" : 0.5
            }
        },
        {
            "doubleSided" : true,
            "name" : "www.3dfox.cn-\u5ba4\u5916\u76d1\u63a71-0028",
            "pbrMetallicRoughness" : {
                "baseColorFactor" : [
                    0.08627499639987946,
                    0.08627499639987946,
                    0.08627499639987946,
                    1
                ],
                "metallicFactor" : 0,
                "roughnessFactor" : 0.5
            }
        }
    ],
    "meshes" : [
        {
            "name" : "Obj3d66-4638355-11-740",
            "primitives" : [
                {
                    "attributes" : {
                        "POSITION" : 0,
                        "NORMAL" : 1,
                        "TEXCOORD_0" : 2
                    },
                    "indices" : 3,
                    "material" : 0
                },
                {
                    "attributes" : {
                        "POSITION" : 4,
                        "NORMAL" : 5,
                        "TEXCOORD_0" : 6
                    },
                    "indices" : 7,
                    "material" : 1
                },
                {
                    "attributes" : {
                        "POSITION" : 8,
                        "NORMAL" : 9,
                        "TEXCOORD_0" : 10
                    },
                    "indices" : 11,
                    "material" : 2
                },
                {
                    "attributes" : {
                        "POSITION" : 12,
                        "NORMAL" : 13,
                        "TEXCOORD_0" : 14
                    },
                    "indices" : 15,
                    "material" : 3
                },
                {
                    "attributes" : {
                        "POSITION" : 16,
                        "NORMAL" : 17,
                        "TEXCOORD_0" : 18
                    },
                    "indices" : 19,
                    "material" : 4
                },
                {
                    "attributes" : {
                        "POSITION" : 20,
                        "NORMAL" : 21,
                        "TEXCOORD_0" : 22
                    },
                    "indices" : 23,
                    "material" : 5
                },
                {
                    "attributes" : {
                        "POSITION" : 24,
                        "NORMAL" : 25,
                        "TEXCOORD_0" : 26
                    },
                    "indices" : 27,
                    "material" : 6
                }
            ]
        }
    ],
    "accessors" : [
        {
            "bufferView" : 0,
            "componentType" : 5126,
            "count" : 2134,
            "max" : [
                0.25314944982528687,
                1.9036370515823364,
                0.3248596787452698
            ],
            "min" : [
                -0.03094746172428131,
                1.4080920219421387,
                0.04731352627277374
            ],
            "type" : "VEC3"
        },
        {
            "bufferView" : 1,
            "componentType" : 5126,
            "count" : 2134,
            "type" : "VEC3"
        },
        {
            "bufferView" : 2,
            "componentType" : 5126,
            "count" : 2134,
            "type" : "VEC2"
        },
        {
            "bufferView" : 3,
            "componentType" : 5123,
            "count" : 10842,
            "type" : "SCALAR"
        },
        {
            "bufferView" : 4,
            "componentType" : 5126,
            "count" : 30,
            "max" : [
                0.020145095884799957,
                1.8708570003509521,
                0.3133867383003235
            ],
            "min" : [
                -0.02039267122745514,
                1.8099620342254639,
                0.2683928608894348
            ],
            "type" : "VEC3"
        },
        {
            "bufferView" : 5,
            "componentType" : 5126,
            "count" : 30,
            "type" : "VEC3"
        },
        {
            "bufferView" : 6,
            "componentType" : 5126,
            "count" : 30,
            "type" : "VEC2"
        },
        {
            "bufferView" : 7,
            "componentType" : 5123,
            "count" : 84,
            "type" : "SCALAR"
        },
        {
            "bufferView" : 8,
            "componentType" : 5126,
            "count" : 6,
            "max" : [
                0.029295705258846283,
                1.8878650665283203,
                0.33138948678970337
            ],
            "min" : [
                -0.03856467455625534,
                1.7920410633087158,
                0.25606971979141235
            ],
            "type" : "VEC3"
        },
        {
            "bufferView" : 9,
            "componentType" : 5126,
            "count" : 6,
            "type" : "VEC3"
        },
        {
            "bufferView" : 10,
            "componentType" : 5126,
            "count" : 6,
            "type" : "VEC2"
        },
        {
            "bufferView" : 11,
            "componentType" : 5123,
            "count" : 12,
            "type" : "SCALAR"
        },
        {
            "bufferView" : 12,
            "componentType" : 5126,
            "count" : 1048,
            "max" : [
                0.37731945514678955,
                1.9574580192565918,
                0.43319135904312134
            ],
            "min" : [
                -0.14786848425865173,
                1.6122490167617798,
                -0.06259720027446747
            ],
            "type" : "VEC3"
        },
        {
            "bufferView" : 13,
            "componentType" : 5126,
            "count" : 1048,
            "type" : "VEC3"
        },
        {
            "bufferView" : 14,
            "componentType" : 5126,
            "count" : 1048,
            "type" : "VEC2"
        },
        {
            "bufferView" : 15,
            "componentType" : 5123,
            "count" : 2808,
            "type" : "SCALAR"
        },
        {
            "bufferView" : 16,
            "componentType" : 5126,
            "count" : 122,
            "max" : [
                0.0678841695189476,
                2.1860511302948,
                0.0658157616853714
            ],
            "min" : [
                -0.06257160007953644,
                0,
                -0.06535427272319794
            ],
            "type" : "VEC3"
        },
        {
            "bufferView" : 17,
            "componentType" : 5126,
            "count" : 122,
            "type" : "VEC3"
        },
        {
            "bufferView" : 18,
            "componentType" : 5126,
            "count" : 122,
            "type" : "VEC2"
        },
        {
            "bufferView" : 19,
            "componentType" : 5123,
            "count" : 348,
            "type" : "SCALAR"
        },
        {
            "bufferView" : 20,
            "componentType" : 5126,
            "count" : 836,
            "max" : [
                0.25364142656326294,
                1.935494065284729,
                0.3573494553565979
            ],
            "min" : [
                -0.06299471110105515,
                1.6340349912643433,
                0.04371197521686554
            ],
            "type" : "VEC3"
        },
        {
            "bufferView" : 21,
            "componentType" : 5126,
            "count" : 836,
            "type" : "VEC3"
        },
        {
            "bufferView" : 22,
            "componentType" : 5126,
            "count" : 836,
            "type" : "VEC2"
        },
        {
            "bufferView" : 23,
            "componentType" : 5123,
            "count" : 2892,
            "type" : "SCALAR"
        },
        {
            "bufferView" : 24,
            "componentType" : 5126,
            "count" : 155,
            "max" : [
                0.3307124972343445,
                1.8893470764160156,
                0.32933884859085083
            ],
            "min" : [
                -0.03722406178712845,
                1.449887990951538,
                -0.015802308917045593
            ],
            "type" : "VEC3"
        },
        {
            "bufferView" : 25,
            "componentType" : 5126,
            "count" : 155,
            "type" : "VEC3"
        },
        {
            "bufferView" : 26,
            "componentType" : 5126,
            "count" : 155,
            "type" : "VEC2"
        },
        {
            "bufferView" : 27,
            "componentType" : 5123,
            "count" : 420,
            "type" : "SCALAR"
        }
    ],
    "bufferViews" : [
        {
            "buffer" : 0,
            "byteLength" : 25608,
            "byteOffset" : 0
        },
        {
            "buffer" : 0,
            "byteLength" : 25608,
            "byteOffset" : 25608
        },
        {
            "buffer" : 0,
            "byteLength" : 17072,
            "byteOffset" : 51216
        },
        {
            "buffer" : 0,
            "byteLength" : 21684,
            "byteOffset" : 68288
        },
        {
            "buffer" : 0,
            "byteLength" : 360,
            "byteOffset" : 89972
        },
        {
            "buffer" : 0,
            "byteLength" : 360,
            "byteOffset" : 90332
        },
        {
            "buffer" : 0,
            "byteLength" : 240,
            "byteOffset" : 90692
        },
        {
            "buffer" : 0,
            "byteLength" : 168,
            "byteOffset" : 90932
        },
        {
            "buffer" : 0,
            "byteLength" : 72,
            "byteOffset" : 91100
        },
        {
            "buffer" : 0,
            "byteLength" : 72,
            "byteOffset" : 91172
        },
        {
            "buffer" : 0,
            "byteLength" : 48,
            "byteOffset" : 91244
        },
        {
            "buffer" : 0,
            "byteLength" : 24,
            "byteOffset" : 91292
        },
        {
            "buffer" : 0,
            "byteLength" : 12576,
            "byteOffset" : 91316
        },
        {
            "buffer" : 0,
            "byteLength" : 12576,
            "byteOffset" : 103892
        },
        {
            "buffer" : 0,
            "byteLength" : 8384,
            "byteOffset" : 116468
        },
        {
            "buffer" : 0,
            "byteLength" : 5616,
            "byteOffset" : 124852
        },
        {
            "buffer" : 0,
            "byteLength" : 1464,
            "byteOffset" : 130468
        },
        {
            "buffer" : 0,
            "byteLength" : 1464,
            "byteOffset" : 131932
        },
        {
            "buffer" : 0,
            "byteLength" : 976,
            "byteOffset" : 133396
        },
        {
            "buffer" : 0,
            "byteLength" : 696,
            "byteOffset" : 134372
        },
        {
            "buffer" : 0,
            "byteLength" : 10032,
            "byteOffset" : 135068
        },
        {
            "buffer" : 0,
            "byteLength" : 10032,
            "byteOffset" : 145100
        },
        {
            "buffer" : 0,
            "byteLength" : 6688,
            "byteOffset" : 155132
        },
        {
            "buffer" : 0,
            "byteLength" : 5784,
            "byteOffset" : 161820
        },
        {
            "buffer" : 0,
            "byteLength" : 1860,
            "byteOffset" : 167604
        },
        {
            "buffer" : 0,
            "byteLength" : 1860,
            "byteOffset" : 169464
        },
        {
            "buffer" : 0,
            "byteLength" : 1240,
            "byteOffset" : 171324
        },
        {
            "buffer" : 0,
            "byteLength" : 840,
            "byteOffset" : 172564
        }
    ],
    "buffers" : [
        {
            "byteLength" : 173404,
            "uri" : "data:application/octet-stream;base64,"
        }
    ]
}
