{
  "accessors": [
    {
      "bufferView": 3,
      "componentType": 5126,
      "count": 1036,
      "max": [
        292.5475158691406,
        289.0205078125,
        219.6607208251953
      ],
      "min": [
        -292.70538330078125,
        0.26036593317985535,
        -236.78131103515625
      ],
      "type": "VEC3"
    },
    {
      "bufferView": 3,
      "byteOffset": 12432,
      "componentType": 5126,
      "count": 1036,
      "max": [
        1.0,
        1.0,
        1.0
      ],
      "min": [
        -1.0,
        -1.0,
        -1.0
      ],
      "type": "VEC3"
    },
    {
      "bufferView": 2,
      "componentType": 5126,
      "count": 1036,
      "max": [
        0.9871764779090881,
        0.9911797046661377
      ],
      "min": [
        0.010448920540511608,
        0.01983737200498581
      ],
      "type": "VEC2"
    },
    {
      "bufferView": 1,
      "componentType": 5125,
      "count": 1620,
      "type": "SCALAR"
    },
    {
      "bufferView": 5,
      "componentType": 5126,
      "count": 2,
      "max": [
        1.3333332538604736,
        0.0,
        0.0,
        0.0,
        0.0,
        1.3333344459533691,
        2.484851847839309e-06,
        0.0,
        0.0,
        0.0,
        1.3333344459533691,
        0.0,
        0.105255126953125,
        0.0,
        11.413180351257324,
        1.0
      ],
      "min": [
        1.0,
        0.0,
        0.0,
        0.0,
        0.0,
        1.0,
        0.0,
        0.0,
        0.0,
        -2.484851847839309e-06,
        1.0,
        0.0,
        0.0,
        -192.85411071777344,
        0.0,
        1.0
      ],
      "type": "MAT4"
    },
    {
      "bufferView": 0,
      "componentType": 5123,
      "count": 1036,
      "type": "VEC4"
    },
    {
      "bufferView": 4,
      "componentType": 5126,
      "count": 1036,
      "max": [
        1.0,
        0.0,
        0.0,
        0.0
      ],
      "min": [
        1.0,
        0.0,
        0.0,
        0.0
      ],
      "type": "VEC4"
    }
  ],
  "asset": {
    "extras": {
      "author": "BytesCrafter (https://sketchfab.com/BytesCrafter)",
      "license": "CC-BY-4.0 (http://creativecommons.org/licenses/by/4.0/)",
      "source": "https://sketchfab.com/3d-models/farm-cow-barn-bbcb26e0d16944ff977b7c484cd761ac",
      "title": "Farm Cow Barn"
    },
    "generator": "Sketchfab-15.25.0",
    "version": "2.0"
  },
  "bufferViews": [
    {
      "buffer": 0,
      "byteLength": 8288,
      "byteStride": 8,
      "name": "shortBufferViews",
      "target": 34962
    },
    {
      "buffer": 0,
      "byteLength": 6480,
      "byteOffset": 8288,
      "name": "floatBufferViews",
      "target": 34963
    },
    {
      "buffer": 0,
      "byteLength": 8288,
      "byteOffset": 14768,
      "byteStride": 8,
      "name": "floatBufferViews",
      "target": 34962
    },
    {
      "buffer": 0,
      "byteLength": 24864,
      "byteOffset": 23056,
      "byteStride": 12,
      "name": "floatBufferViews",
      "target": 34962
    },
    {
      "buffer": 0,
      "byteLength": 16576,
      "byteOffset": 47920,
      "byteStride": 16,
      "name": "floatBufferViews",
      "target": 34962
    },
    {
      "buffer": 0,
      "byteLength": 128,
      "byteOffset": 64496,
      "name": "floatBufferViews"
    }
  ],
  "buffers": [
    {
      "byteLength": 64624,
      "uri": "scene.bin"
    }
  ],
  "images": [
    {
      "uri": "textures/orig_02_-_Default_baseColor.png"
    }
  ],
  "materials": [
    {
      "doubleSided": true,
      "name": "orig_02_-_Default",
      "pbrMetallicRoughness": {
        "baseColorTexture": {
          "index": 0
        },
        "metallicFactor": 0.0,
        "roughnessFactor": 0.6
      }
    }
  ],
  "meshes": [
    {
      "name": "Sphere01_0_orig_02 - Default_0",
      "primitives": [
        {
          "attributes": {
            "JOINTS_0": 5,
            "NORMAL": 1,
            "POSITION": 0,
            "TEXCOORD_0": 2,
            "WEIGHTS_0": 6
          },
          "indices": 3,
          "material": 0,
          "mode": 4
        }
      ]
    }
  ],
  "nodes": [
    {
      "children": [
        1
      ],
      "matrix": [
        1.0,
        0.0,
        0.0,
        0.0,
        0.0,
        2.220446049250313e-16,
        -1.0,
        0.0,
        0.0,
        1.0,
        2.220446049250313e-16,
        0.0,
        0.0,
        0.0,
        0.0,
        1.0
      ],
      "name": "Sketchfab_model"
    },
    {
      "children": [
        2
      ],
      "matrix": [
        1.0,
        0.0,
        0.0,
        0.0,
        0.0,
        0.0,
        1.0,
        0.0,
        0.0,
        -1.0,
        0.0,
        0.0,
        0.0,
        0.0,
        0.0,
        1.0
      ],
      "name": "e32bb78a577142f5b4a3c92b7bc881ff.fbx"
    },
    {
      "children": [
        3
      ],
      "name": "RootNode"
    },
    {
      "children": [
        4
      ],
      "matrix": [
        0.75,
        0.0,
        0.0,
        0.0,
        0.0,
        1.6653345369377348e-16,
        -0.75,
        0.0,
        0.0,
        0.75,
        1.6653345369377348e-16,
        0.0,
        0.0,
        0.0,
        0.0,
        1.0
      ],
      "name": "Barn 01"
    },
    {
      "children": [
        5
      ],
      "matrix": [
        1.0,
        0.0,
        0.0,
        0.0,
        0.0,
        1.0,
        -1.232595164407831e-32,
        0.0,
        0.0,
        1.232595164407831e-32,
        1.0,
        0.0,
        0.0,
        0.0,
        0.0,
        1.0
      ],
      "name": "Scene Root_root"
    },
    {
      "children": [
        6,
        9,
        8
      ],
      "name": "Object_5"
    },
    {
      "children": [
        7
      ],
      "name": "_rootJoint"
    },
    {
      "name": "Sphere01_00",
      "rotation": [
        0.7071060538291931,
        0.0,
        0.0,
        0.7071074843406677
      ],
      "scale": [
        1.0,
        0.9999992251396179,
        0.9999992251396179
      ],
      "translation": [
        -0.105255126953125,
        11.413528442382813,
        192.85389709472656
      ]
    },
    {
      "matrix": [
        0.9999999403953552,
        0.0,
        0.0,
        0.0,
        0.0,
        -4.3711332388651665e-08,
        -0.9999998807933064,
        0.0,
        0.0,
        0.9999998807933064,
        -4.3711332388651665e-08,
        0.0,
        0.0,
        8.934007638572439e-06,
        -3.8962506820894305e-07,
        1.0
      ],
      "name": "Object_8"
    },
    {
      "mesh": 0,
      "name": "Object_9",
      "skin": 0
    }
  ],
  "samplers": [
    {
      "magFilter": 9729,
      "minFilter": 9987,
      "wrapS": 10497,
      "wrapT": 10497
    }
  ],
  "scene": 0,
  "scenes": [
    {
      "name": "Sketchfab_Scene",
      "nodes": [
        0
      ]
    }
  ],
  "skins": [
    {
      "inverseBindMatrices": 4,
      "joints": [
        6,
        7
      ],
      "skeleton": 6
    }
  ],
  "textures": [
    {
      "sampler": 0,
      "source": 0
    }
  ]
}
